<?xml version="1.0" encoding="UTF-8" standalone="no"?>
<svg xmlns:ffdec="https://www.free-decompiler.com/flash" xmlns:xlink="http://www.w3.org/1999/xlink" ffdec:objectType="shape" height="82.8px" width="92.2px" xmlns="http://www.w3.org/2000/svg">
  <g transform="matrix(4.0, 0.0, 0.0, 4.0, 0.0, 0.0)">
    <path d="M-20.05 3.8 L-21.1 2.65 Q-20.85 -0.4 -19.55 -3.2 L-17.55 -7.65 -16.05 -10.85 Q-15.2 -12.4 -12.95 -14.1 -10.75 -15.8 -3.25 -16.9 4.2 -17.95 9.1 -15.35 14.0 -12.8 15.5 -10.45 L18.55 -5.3 Q20.1 -2.45 21.05 1.55 20.95 1.25 17.2 2.3 13.45 3.3 9.85 6.0 6.25 8.7 5.1 10.6 L3.4 13.25 Q2.85 14.0 1.45 14.4 L-1.6 14.8 -4.45 14.65 Q-5.75 14.5 -10.1 11.6 L-13.8 8.65 -16.75 6.55 Q-19.85 4.4 -20.05 3.8" fill="#333333" fill-rule="evenodd" stroke="none"/>
    <path d="M21.05 1.55 Q20.1 -2.45 18.55 -5.3 L15.5 -10.45 Q14.0 -12.8 9.1 -15.35 4.2 -17.95 -3.25 -16.9 -10.75 -15.8 -12.95 -14.1 -15.2 -12.4 -16.05 -10.85 L-17.55 -7.65 -19.55 -3.2 Q-20.85 -0.4 -21.1 2.65 L-20.05 3.8 M-13.8 8.65 L-10.1 11.6 Q-5.75 14.5 -4.45 14.65 L-1.6 14.8 1.45 14.4 Q2.85 14.0 3.4 13.25 L5.1 10.6" ffdec:has-small-stroke="true" ffdec:original-stroke-width="0.2" fill="none" stroke="#000000" stroke-linecap="round" stroke-linejoin="round" stroke-width="0.0625"/>
    <path d="M14.55 13.2 L13.95 10.4 13.2 8.45 12.8 7.5 12.6 7.05 12.5 6.75 Q7.4 -2.55 5.85 -4.3 L1.3 -3.15 -5.6 -2.05 -7.3 -1.95 -7.9 -1.95 -10.4 -2.3 -16.8 -3.95 Q-20.8 -5.2 -21.55 -6.6 L-18.7 -11.7 Q-17.1 -14.65 -8.5 -19.9 0.05 -25.15 7.9 -20.75 15.75 -16.45 17.7 -14.3 19.65 -12.15 19.75 -10.65 L21.8 -6.0 Q22.5 -3.9 22.7 -1.95 L22.8 -0.3 22.85 2.9 23.05 6.8 21.1 8.55 Q19.2 10.05 19.25 10.25 L14.55 13.2 M-11.0 16.4 L-12.0 13.95 -13.0 9.8 Q-12.1 12.0 -9.95 14.95 -7.85 17.9 -6.55 18.8 L-7.0 18.6 -8.3 17.95 -10.15 16.95 -10.4 16.75 -11.0 16.4" fill="#b0ac84" fill-rule="evenodd" stroke="none"/>
    <path d="M-21.55 -6.6 Q-20.8 -5.2 -16.8 -3.95 L-10.4 -2.3 -7.9 -1.95 -7.3 -1.95 -5.6 -2.05 1.3 -3.15 5.85 -4.3 Q7.4 -2.55 12.5 6.75 L12.6 7.05 12.8 7.5 13.2 8.45 13.95 10.4 14.55 13.2 Q11.4 15.15 8.15 17.6 L5.1 19.7 4.35 19.95 Q2.7 20.6 1.65 20.7 L0.25 20.7 -1.0 20.6 -2.85 20.2 -4.35 19.65 -5.7 19.1 -6.05 18.95 -6.55 18.8 Q-7.85 17.9 -9.95 14.95 -12.1 12.0 -13.0 9.8 L-12.0 13.95 -11.0 16.4 -11.75 16.0 Q-13.0 15.35 -17.3 10.95 L-23.1 5.25 -24.8 3.9 -23.55 -0.9 -22.4 -4.6 -21.55 -6.6" fill="#e0d9a2" fill-rule="evenodd" stroke="none"/>
    <path d="M-6.55 18.8 L-8.9 17.75 -9.05 17.65 -7.0 18.6 -6.55 18.8" fill="#fcf2cf" fill-rule="evenodd" stroke="none"/>
    <path d="M23.05 6.8 L22.85 2.9 22.8 -0.3 22.7 -1.95 Q22.5 -3.9 21.8 -6.0 L19.75 -10.65 Q19.65 -12.15 17.7 -14.3 15.75 -16.45 7.9 -20.75 0.05 -25.15 -8.5 -19.9 -17.1 -14.65 -18.7 -11.7 L-21.55 -6.6 -22.4 -4.6 -23.55 -0.9 -24.8 3.9 M-5.7 19.1 L-4.35 19.65 -2.85 20.2 -1.0 20.6 0.25 20.7 1.65 20.7 Q2.7 20.6 4.35 19.95 L5.1 19.7 M-5.7 19.1 L-6.05 19.0 -6.55 18.8" ffdec:has-small-stroke="true" ffdec:original-stroke-width="0.2" fill="none" stroke="#000000" stroke-linecap="round" stroke-linejoin="round" stroke-width="0.0625"/>
  </g>
</svg>
