<?xml version="1.0" encoding="UTF-8" standalone="no"?>
<svg xmlns:ffdec="https://www.free-decompiler.com/flash" xmlns:xlink="http://www.w3.org/1999/xlink" ffdec:objectType="shape" height="163.8px" width="76.8px" xmlns="http://www.w3.org/2000/svg">
  <g transform="matrix(4.0, 0.0, 0.0, 4.0, 0.0, 0.0)">
    <path d="M14.7 -20.6 Q16.05 -19.15 17.0 -16.95 L17.2 -16.55 17.5 -15.65 Q19.2 -10.25 19.2 -3.85 19.2 -2.3 17.1 4.9 L16.85 5.85 16.3 7.75 Q14.1 14.95 13.2 20.95 L13.0 25.65 Q12.95 29.0 13.85 30.8 L15.1 33.4 16.4 35.75 Q17.25 37.35 15.15 38.1 L15.1 38.15 12.85 38.85 11.05 36.1 Q8.85 32.25 8.85 27.1 8.85 24.6 9.15 22.1 L9.1 18.55 Q9.1 14.05 9.5 10.3 4.6 14.05 2.2 14.05 0.5 14.05 -2.75 12.8 -6.05 11.55 -7.0 11.5 -8.0 11.4 -8.8 11.9 L-10.55 12.55 -11.85 12.85 Q-12.25 12.95 -12.9 13.4 L-14.15 14.75 -15.0 16.35 -15.75 14.55 -16.05 13.05 -16.5 10.1 -16.55 10.0 -18.85 8.25 Q-21.7 5.2 -21.7 1.75 L-21.65 1.0 -21.65 0.9 Q-21.15 2.2 -19.7 3.35 -18.25 4.5 -14.9 4.15 L-10.35 3.2 -8.5 2.45 Q-8.0 -0.05 -6.25 -2.9 -4.05 -5.85 -3.55 -6.8 -5.65 -1.9 -5.9 -0.2 -6.05 1.5 -5.5 3.0 -4.75 4.3 -1.85 4.9 L3.95 4.55 8.2 2.9 Q9.6 2.15 12.1 -1.3 L12.35 -1.9 14.25 -6.9 Q15.2 -10.05 15.2 -14.35 L15.15 -16.55 15.05 -17.55 14.7 -20.6" fill="#262626" fill-rule="evenodd" stroke="none"/>
    <path d="M4.35 -25.55 L4.7 -25.5 Q7.4 -23.95 11.6 -22.55 13.35 -21.9 14.7 -20.6 L15.05 -17.55 15.15 -16.55 15.2 -14.35 Q15.2 -10.05 14.25 -6.9 L12.35 -1.9 12.1 -1.3 Q9.6 2.15 8.2 2.9 L3.95 4.55 -1.85 4.9 Q-4.75 4.3 -5.5 3.0 -6.05 1.5 -5.9 -0.2 -5.65 -1.9 -3.55 -6.8 -4.05 -5.85 -6.25 -2.9 -8.0 -0.05 -8.5 2.45 L-10.35 3.2 -14.9 4.15 Q-18.25 4.5 -19.7 3.35 -21.15 2.2 -21.65 0.9 -21.5 -1.5 -20.1 -3.35 L-17.8 -6.65 Q-16.8 -10.55 -15.85 -13.05 -14.0 -17.85 -12.9 -19.3 -11.2 -21.5 -9.25 -22.95 L-6.45 -24.5 Q-1.55 -26.75 4.35 -25.55 M12.85 38.85 L9.45 39.75 Q5.75 40.75 0.25 40.9 L-9.85 40.15 Q-14.35 39.25 -16.85 37.35 -17.05 34.9 -15.4 31.05 -13.7 27.15 -13.95 23.95 -14.15 20.7 -14.45 19.0 L-15.0 16.35 -14.15 14.75 -12.9 13.4 Q-12.25 12.95 -11.85 12.85 L-10.55 12.55 -8.8 11.9 Q-8.0 11.4 -7.0 11.5 -6.05 11.55 -2.75 12.8 0.5 14.05 2.2 14.05 4.6 14.05 9.5 10.3 9.1 14.05 9.1 18.55 L9.15 22.1 Q8.85 24.6 8.85 27.1 8.85 32.25 11.05 36.1 L12.85 38.85" fill="#333333" fill-rule="evenodd" stroke="none"/>
    <path d="M4.7 -25.5 Q7.4 -23.95 11.6 -22.55 13.35 -21.9 14.7 -20.6 16.05 -19.15 17.0 -16.95 L17.2 -16.55 17.5 -15.65 Q19.2 -10.25 19.2 -3.85 19.2 -2.3 17.1 4.9 L16.85 5.85 16.3 7.75 Q14.1 14.95 13.2 20.95 L13.0 25.65 Q12.95 29.0 13.85 30.8 L15.1 33.4 16.4 35.75 Q17.25 37.35 15.15 38.1 L15.1 38.15 12.85 38.85 9.45 39.75 Q5.75 40.75 0.25 40.9 L-9.85 40.15 Q-14.35 39.25 -16.85 37.35 -17.05 34.9 -15.4 31.05 -13.7 27.15 -13.95 23.95 -14.15 20.7 -14.45 19.0 L-15.0 16.35 -15.75 14.55 -16.05 13.05 -16.5 10.1 -16.55 10.0 -18.85 8.25 Q-21.7 5.2 -21.7 1.75 L-21.65 1.0 M-21.65 0.9 Q-21.5 -1.5 -20.1 -3.35 L-17.8 -6.65 Q-16.8 -10.55 -15.85 -13.05 -14.0 -17.85 -12.9 -19.3 -11.2 -21.5 -9.25 -22.95 L-6.45 -24.5 Q-1.55 -26.75 4.35 -25.55" ffdec:has-small-stroke="true" ffdec:original-stroke-width="0.2" fill="none" stroke="#000000" stroke-linecap="round" stroke-linejoin="round" stroke-width="0.0625"/>
  </g>
</svg>
