<?xml version="1.0" encoding="UTF-8" standalone="no"?>
<svg xmlns:ffdec="https://www.free-decompiler.com/flash" xmlns:xlink="http://www.w3.org/1999/xlink" ffdec:objectType="shape" height="87.8px" width="48.0px" xmlns="http://www.w3.org/2000/svg">
  <g transform="matrix(4.0, 0.0, 0.0, 4.0, 0.0, 0.0)">
    <path d="M11.6 14.8 L12.0 15.2 Q11.45 17.1 8.35 19.5 5.0 22.1 3.0 21.95 1.7 21.5 0.85 20.1 0.0 18.7 0.0 17.45 L1.35 15.25 Q1.75 14.45 1.4 12.55 L0.95 9.7 0.7 8.2 0.2 5.9 Q-0.25 4.1 1.35 2.15 3.05 0.0 6.1 0.0 8.35 0.0 9.4 1.7 10.05 2.7 10.2 3.85 L10.3 5.65 10.2 8.1 Q10.05 9.9 10.2 11.6 10.35 13.25 10.95 14.05 L11.6 14.8" fill="#fdbf82" fill-rule="evenodd" stroke="none"/>
  </g>
</svg>
