<?xml version="1.0" encoding="UTF-8" standalone="no"?>
<svg xmlns:ffdec="https://www.free-decompiler.com/flash" xmlns:xlink="http://www.w3.org/1999/xlink" ffdec:objectType="shape" height="167.0px" width="85.4px" xmlns="http://www.w3.org/2000/svg">
  <g transform="matrix(4.0, 0.0, 0.0, 4.0, 0.0, 0.0)">
    <path d="M6.0 -24.85 Q5.45 -22.95 2.35 -20.55 -1.0 -17.95 -3.0 -18.1 -4.3 -18.55 -5.15 -19.95 -6.0 -21.35 -6.0 -22.6 L-4.65 -24.8 Q-4.25 -25.6 -4.6 -27.5 L-5.05 -30.35 -5.3 -31.85 -5.8 -34.15 Q-6.25 -35.95 -4.65 -37.9 -2.95 -40.05 0.1 -40.05 2.35 -40.05 3.4 -38.35 4.05 -37.35 4.2 -36.2 L4.3 -34.4 4.2 -31.95 Q4.05 -30.15 4.2 -28.45 4.35 -26.8 4.95 -26.0 L5.6 -25.25 6.0 -24.85 Z" ffdec:has-small-stroke="true" ffdec:original-stroke-width="0.2" fill="none" stroke="#000000" stroke-linecap="round" stroke-linejoin="round" stroke-width="0.0625"/>
    <path d="M-6.45 -18.5 L-6.55 -17.55 -7.45 -18.85 -9.0 -20.35 -9.1 -20.45 Q-9.7 -20.9 -10.05 -22.8 L-8.35 -23.8 -8.45 -23.35 -8.5 -23.1 -8.6 -22.85 -8.6 -22.8 -8.85 -22.5 -9.35 -21.85 -8.9 -20.7 -7.1 -19.0 -6.45 -18.5 M-8.9 -20.7 L-9.0 -20.35 -8.9 -20.7" fill="#99aac8" fill-rule="evenodd" stroke="none"/>
    <path d="M-2.2 -25.25 L1.95 -24.9 Q2.85 -24.9 5.35 -25.9 L6.4 -26.35 7.45 -26.8 7.5 -26.8 7.4 -26.45 7.35 -26.35 7.35 -26.3 7.35 -26.25 7.3 -26.2 7.25 -26.05 7.2 -26.0 6.95 -25.65 Q5.8 -24.4 1.6 -22.5 L1.8 -22.5 Q5.5 -23.85 6.65 -24.9 5.5 -23.1 3.9 -21.85 2.3 -20.6 1.15 -20.4 L-2.8 -19.55 Q-4.9 -19.1 -6.95 -20.05 -7.65 -20.4 -8.35 -20.9 L-8.65 -21.3 -8.85 -21.8 -8.6 -22.8 -8.45 -23.05 -8.6 -22.8 -8.85 -21.8 -8.65 -21.3 -8.35 -20.9 -8.1 -20.65 -7.5 -20.05 -7.35 -19.95 -7.2 -19.7 -6.45 -18.95 -5.55 -18.55 -5.05 -18.45 -5.0 -18.45 -3.8 -18.4 -2.25 -18.4 -1.25 -18.55 0.75 -19.15 1.0 -19.25 1.3 -19.35 1.45 -19.4 2.15 -19.6 3.5 -20.2 4.55 -20.8 Q6.6 -22.2 7.55 -24.55 L7.65 -24.8 7.95 -24.75 8.5 -24.8 Q8.9 -24.6 8.95 -24.05 L8.95 -23.9 8.95 -23.75 Q7.95 -23.65 6.25 -21.9 4.35 -19.85 3.15 -19.35 L3.05 -19.3 2.0 -18.85 1.15 -18.5 0.85 -18.4 -1.3 -17.7 -3.8 -17.25 -5.25 -17.7 -6.45 -18.5 -7.1 -19.0 -8.9 -20.7 -9.35 -21.85 -8.85 -22.5 -8.6 -22.8 -8.6 -22.85 -8.5 -23.1 -8.45 -23.05 -8.0 -22.7 -7.9 -22.6 -6.9 -21.85 Q-5.85 -20.85 -3.8 -20.85 L-3.1 -20.9 -4.1 -21.5 -4.8 -22.0 Q-5.85 -22.0 -7.05 -22.9 L-7.75 -23.5 -8.1 -23.95 -8.3 -24.35 -8.3 -24.5 -8.5 -24.7 -8.8 -26.05 -8.1 -25.95 Q-4.7 -25.15 -2.2 -25.25 M7.35 -26.35 L7.35 -26.25 7.35 -26.35 M1.25 -22.7 L2.55 -23.1 Q3.8 -23.65 4.85 -24.15 L6.45 -25.35 7.2 -26.0 6.45 -25.35 4.85 -24.15 Q3.8 -23.65 2.55 -23.1 L1.25 -22.7 M-3.9 -19.75 L-3.1 -19.85 -1.7 -20.05 -1.45 -20.4 Q-1.55 -20.4 -1.65 -20.5 L-2.35 -20.25 -3.65 -20.1 -5.4 -20.2 Q-6.65 -20.3 -7.35 -21.05 L-8.15 -21.65 -8.6 -21.9 -7.85 -20.95 -7.35 -20.55 Q-6.35 -19.7 -5.4 -19.85 L-4.3 -19.8 -3.9 -19.75 M-7.8 -25.05 Q-7.95 -25.55 -8.35 -25.5 -8.3 -24.7 -7.8 -24.1 L-7.7 -23.95 -7.65 -23.9 Q-6.9 -23.2 -5.5 -22.7 L-4.05 -22.7 -3.75 -22.65 -3.55 -22.65 -3.5 -22.85 -4.0 -23.0 -5.55 -23.0 Q-6.7 -23.4 -7.55 -24.3 L-7.8 -25.05" fill="#e0d0c1" fill-rule="evenodd" stroke="none"/>
    <path d="M6.55 -26.6 L6.9 -26.75 Q7.45 -27.15 7.5 -27.0 L7.5 -26.9 7.5 -26.8 7.5 -26.9 7.5 -27.0 Q7.45 -27.15 6.9 -26.75 L6.55 -26.6 8.0 -28.0 Q9.65 -29.3 11.1 -29.1 L11.55 -29.1 11.55 -28.55 Q11.2 -26.55 9.8 -25.5 9.15 -25.0 8.5 -24.8 L7.95 -24.75 7.65 -24.8 7.65 -24.85 7.55 -25.1 7.35 -25.5 7.55 -25.1 7.65 -24.85 7.65 -24.8 7.55 -24.55 Q6.6 -22.2 4.55 -20.8 L3.5 -20.2 2.15 -19.6 1.45 -19.4 1.3 -19.35 1.0 -19.25 0.75 -19.15 -1.25 -18.55 -2.25 -18.4 -3.8 -18.4 -5.0 -18.45 -5.05 -18.45 -5.55 -18.55 -6.45 -18.95 -7.2 -19.7 -7.35 -19.95 -7.5 -20.05 -8.1 -20.65 -8.35 -20.9 Q-7.65 -20.4 -6.95 -20.05 -4.9 -19.1 -2.8 -19.55 L1.15 -20.4 Q2.3 -20.6 3.9 -21.85 5.5 -23.1 6.65 -24.9 5.5 -23.85 1.8 -22.5 L1.6 -22.5 Q5.8 -24.4 6.95 -25.65 L7.2 -26.0 7.25 -26.05 7.5 -26.55 7.35 -26.3 7.35 -26.35 7.4 -26.45 7.5 -26.8 7.45 -26.8 6.4 -26.35 5.35 -25.9 Q2.85 -24.9 1.95 -24.9 L-2.2 -25.25 -0.75 -25.45 3.6 -25.75 5.4 -26.15 6.15 -26.45 6.55 -26.6 M7.25 -25.65 L7.15 -25.75 6.95 -25.65 7.15 -25.75 7.25 -25.65 7.3 -25.6 7.35 -25.5 9.1 -26.2 Q10.4 -26.9 10.75 -28.0 L10.15 -28.1 Q9.4 -28.1 8.45 -27.45 7.9 -27.1 7.5 -26.4 L7.4 -26.1 7.4 -26.05 7.35 -25.95 7.25 -25.7 7.25 -25.65 M7.25 -26.05 L7.3 -26.2 7.35 -26.25 7.35 -26.3 7.25 -26.05 M-8.3 -24.35 L-8.1 -23.95 -7.75 -23.5 -7.05 -22.9 Q-5.85 -22.0 -4.8 -22.0 L-4.1 -21.5 -3.1 -20.9 -3.8 -20.85 Q-5.85 -20.85 -6.9 -21.85 L-7.9 -22.6 -8.0 -22.7 -8.45 -23.05 -8.45 -23.35 -8.45 -23.05 -8.5 -23.1 -8.45 -23.35 -8.35 -23.8 -8.3 -24.35" fill="#b09e92" fill-rule="evenodd" stroke="none"/>
    <path d="M-7.8 -25.05 L-7.55 -24.3 Q-6.7 -23.4 -5.55 -23.0 L-4.0 -23.0 -3.5 -22.85 -3.55 -22.65 -3.75 -22.65 -4.05 -22.7 -5.5 -22.7 Q-6.9 -23.2 -7.65 -23.9 L-7.7 -23.95 -7.8 -24.1 Q-8.3 -24.7 -8.35 -25.5 -7.95 -25.55 -7.8 -25.05 M-3.9 -19.75 L-4.3 -19.8 -5.4 -19.85 Q-6.35 -19.7 -7.35 -20.55 L-7.85 -20.95 -8.6 -21.9 -8.15 -21.65 -7.35 -21.05 Q-6.65 -20.3 -5.4 -20.2 L-3.65 -20.1 -2.35 -20.25 -1.65 -20.5 Q-1.55 -20.4 -1.45 -20.4 L-1.7 -20.05 -3.1 -19.85 -3.9 -19.75" fill="#eee3dd" fill-rule="evenodd" stroke="none"/>
    <path d="M7.25 -25.65 L7.25 -25.7 7.35 -25.95 7.4 -26.05 7.4 -26.1 7.5 -26.4 Q7.9 -27.1 8.45 -27.45 9.4 -28.1 10.15 -28.1 L10.75 -28.0 Q10.4 -26.9 9.1 -26.2 L7.35 -25.5 7.3 -25.6 7.25 -25.65 M9.8 -27.3 Q8.95 -27.25 7.95 -26.35 L7.3 -25.6 7.95 -26.35 Q8.95 -27.25 9.8 -27.3" fill="#9d887b" fill-rule="evenodd" stroke="none"/>
    <path d="M3.05 -19.3 L2.75 -18.9 2.75 -18.5 6.85 -18.35 6.8 -13.25 Q6.8 -9.65 8.55 -5.4 10.3 -1.1 10.3 0.95 L10.0 4.65 Q8.5 5.5 6.4 6.2 2.35 7.55 -1.6 7.55 -2.2 6.2 -2.2 5.4 -2.2 2.65 -0.85 -4.15 L2.0 -18.85 3.05 -19.3 M0.05 10.6 Q2.7 10.3 7.25 8.0 8.65 7.3 9.95 6.75 L9.4 10.15 Q9.25 11.1 9.5 13.0 7.45 14.95 3.25 16.7 L1.9 17.25 1.9 16.5 Q1.9 13.85 0.05 10.6 M1.9 18.7 L6.7 17.35 9.95 16.15 10.2 17.7 Q11.25 23.35 11.6 28.15 11.95 32.95 10.65 35.5 L8.55 38.5 -1.05 39.35 -1.5 39.35 Q1.55 28.45 1.9 18.7 M-6.45 -18.5 L-5.25 -17.7 -3.8 -17.25 -1.3 -17.7 0.85 -18.4 1.15 -18.5 -1.4 -6.4 Q-3.55 3.6 -3.55 6.25 L-3.4 7.45 Q-5.6 7.2 -7.0 6.25 -9.95 3.2 -10.8 3.2 L-12.5 4.65 -13.15 5.1 Q-14.8 6.05 -16.85 6.05 L-17.5 6.05 -17.95 2.95 Q-17.95 -0.05 -14.85 -6.95 -10.6 -16.3 -9.0 -20.35 -10.6 -16.3 -14.85 -6.95 -17.95 -0.05 -17.95 2.95 L-17.5 6.05 -18.85 5.75 -20.15 5.25 -20.2 5.2 -20.5 5.4 -18.15 7.55 -16.45 8.85 Q-15.35 9.6 -14.6 9.6 L-12.45 9.1 -12.2 9.05 -10.6 8.55 -6.55 9.35 -5.65 9.6 -2.1 10.5 -1.4 11.6 Q0.5 14.3 0.75 17.65 L-2.15 18.3 -1.7 18.35 0.75 18.7 Q0.7 24.05 -0.9 29.55 L-2.2 35.05 Q-4.25 38.75 -5.8 39.2 L-8.35 38.95 -11.55 38.4 Q-15.05 37.7 -17.55 36.65 L-20.1 35.25 Q-14.45 24.2 -16.25 18.7 L-19.15 10.5 -21.55 4.95 Q-22.85 2.15 -21.7 -1.1 -20.6 -4.4 -18.4 -8.35 -16.25 -12.3 -15.85 -14.8 -15.5 -17.3 -14.6 -18.55 -13.75 -19.85 -11.7 -21.55 L-10.05 -22.8 Q-9.7 -20.9 -9.1 -20.45 L-9.0 -20.35 -7.45 -18.85 -6.55 -17.55 -6.45 -18.5 M-16.45 8.85 L-15.0 11.55 Q-12.1 16.2 -12.1 19.0 -12.1 23.55 -15.75 32.2 L-17.55 36.65 -15.75 32.2 Q-12.1 23.55 -12.1 19.0 -12.1 16.2 -15.0 11.55 L-16.45 8.85" fill="#242342" fill-rule="evenodd" stroke="none"/>
    <path d="M1.9 17.25 L1.9 18.7 1.65 18.75 0.75 18.7 0.75 18.45 0.75 17.65 1.9 17.25" fill="#05051d" fill-rule="evenodd" stroke="none"/>
    <path d="M19.3 36.65 L19.6 38.4 17.75 38.8 16.95 37.0 18.4 36.9 19.3 36.65 M15.05 37.5 L15.0 37.85 15.0 39.65 Q9.9 41.1 6.0 41.6 L2.35 41.75 -1.7 41.6 -2.15 41.6 -5.5 41.25 -7.5 40.95 -8.95 40.75 -10.05 40.6 Q-14.4 39.85 -18.15 38.3 L-21.0 36.9 -20.1 35.25 -17.55 36.65 Q-15.05 37.7 -11.55 38.4 L-8.35 38.95 -5.8 39.2 -4.85 39.25 -1.7 39.35 -1.5 39.35 -1.05 39.35 8.55 38.5 8.6 38.5 15.05 37.5" fill="#424379" fill-rule="evenodd" stroke="none"/>
    <path d="M8.95 -24.05 L14.25 -21.9 Q18.45 -20.1 20.1 -16.65 21.75 -13.25 21.2 -7.0 20.6 -0.85 19.95 0.5 L16.95 9.15 Q16.25 11.2 15.9 13.1 14.95 17.95 16.1 21.8 17.7 27.15 17.95 28.9 L19.3 36.65 18.4 36.9 16.95 37.0 16.05 33.55 15.3 29.25 15.25 33.0 15.1 36.8 15.05 37.5 8.6 38.5 8.55 38.5 10.65 35.5 Q11.95 32.95 11.6 28.15 11.25 23.35 10.2 17.7 L9.95 16.15 6.7 17.35 1.9 18.7 1.9 17.25 3.25 16.7 Q7.45 14.95 9.5 13.0 9.25 11.1 9.4 10.15 L9.95 6.75 Q8.65 7.3 7.25 8.0 2.7 10.3 0.05 10.6 L-0.15 10.3 -1.6 7.55 -0.15 10.3 0.05 10.6 -0.7 10.65 -2.1 10.5 -5.65 9.6 -6.55 9.35 -10.6 8.55 -12.2 9.05 -12.45 9.1 -14.6 9.6 Q-15.35 9.6 -16.45 8.85 L-18.15 7.55 -20.5 5.4 -20.2 5.2 -20.15 5.25 -18.85 5.75 -17.5 6.05 -16.85 6.05 Q-14.8 6.05 -13.15 5.1 L-12.5 4.65 -10.8 3.2 Q-9.95 3.2 -7.0 6.25 -5.6 7.2 -3.4 7.45 L-1.75 7.55 -1.6 7.55 Q2.35 7.55 6.4 6.2 8.5 5.5 10.0 4.65 L10.3 0.95 Q10.3 -1.1 8.55 -5.4 6.8 -9.65 6.8 -13.25 L6.85 -18.35 2.75 -18.5 2.75 -18.9 3.05 -19.3 3.15 -19.35 Q4.35 -19.85 6.25 -21.9 7.95 -23.65 8.95 -23.75 L8.95 -23.9 8.95 -24.05 M0.75 17.65 L0.75 18.45 0.75 18.7 -1.7 18.35 -2.15 18.3 0.75 17.65 M-16.45 8.85 L-17.5 6.05 -16.45 8.85" fill="#09092b" fill-rule="evenodd" stroke="none"/>
    <path d="M-3.4 7.45 L-3.55 6.25 Q-3.55 3.6 -1.4 -6.4 L1.15 -18.5 2.0 -18.85 -0.85 -4.15 Q-2.2 2.65 -2.2 5.4 -2.2 6.2 -1.6 7.55 L-1.75 7.55 -3.4 7.45 M0.05 10.6 Q1.9 13.85 1.9 16.5 L1.9 17.25 0.75 17.65 Q0.5 14.3 -1.4 11.6 L-2.1 10.5 -0.7 10.65 0.05 10.6 M0.75 18.7 L1.65 18.75 1.9 18.7 Q1.55 28.45 -1.5 39.35 L-1.7 39.35 -4.85 39.25 -5.8 39.2 Q-4.25 38.75 -2.2 35.05 L-0.9 29.55 Q0.7 24.05 0.75 18.7" fill="#1b1c32" fill-rule="evenodd" stroke="none"/>
    <path d="M7.5 -26.8 L7.5 -26.9 7.5 -27.0 Q7.45 -27.15 6.9 -26.75 L6.55 -26.6 6.15 -26.45 5.4 -26.15 3.6 -25.75 -0.75 -25.45 -2.2 -25.25 Q-4.7 -25.15 -8.1 -25.95 L-8.8 -26.05 -8.5 -24.7 -8.3 -24.5 -8.3 -24.35 -8.1 -23.95 -7.75 -23.5 -7.05 -22.9 Q-5.85 -22.0 -4.8 -22.0 M7.5 -26.8 L7.4 -26.45 7.35 -26.35 7.35 -26.3 7.25 -26.05 7.2 -26.0 6.45 -25.35 4.85 -24.15 Q3.8 -23.65 2.55 -23.1 L1.25 -22.7 M6.95 -25.65 L7.15 -25.75 7.25 -25.65 7.3 -25.6 7.95 -26.35 Q8.95 -27.25 9.8 -27.3 M7.35 -25.5 L7.55 -25.1 7.65 -24.85 7.65 -24.8 7.95 -24.75 8.5 -24.8 Q9.15 -25.0 9.8 -25.5 11.2 -26.55 11.55 -28.55 L11.55 -29.1 11.1 -29.1 Q9.65 -29.3 8.0 -28.0 L6.55 -26.6 M7.25 -26.05 L7.3 -26.2 7.35 -26.25 7.35 -26.35 M7.35 -25.5 L7.3 -25.6 M7.35 -26.25 L7.35 -26.3 M8.95 -24.05 L14.25 -21.9 Q18.45 -20.1 20.1 -16.65 21.75 -13.25 21.2 -7.0 20.6 -0.85 19.95 0.5 L16.95 9.15 Q16.25 11.2 15.9 13.1 14.95 17.95 16.1 21.8 17.7 27.15 17.95 28.9 L19.3 36.65 19.6 38.4 17.75 38.8 16.95 37.0 16.05 33.55 15.3 29.25 15.25 33.0 15.1 36.8 15.05 37.5 15.0 37.85 15.0 39.65 Q9.9 41.1 6.0 41.6 L2.35 41.75 -1.7 41.6 -2.15 41.6 -5.5 41.25 -7.5 40.95 -8.95 40.75 -10.05 40.6 Q-14.4 39.85 -18.15 38.3 L-21.0 36.9 -20.1 35.25 -20.35 35.05 M3.05 -19.3 L3.15 -19.35 Q4.35 -19.85 6.25 -21.9 7.95 -23.65 8.95 -23.75 L8.95 -23.9 8.95 -24.05 Q8.9 -24.6 8.5 -24.8 M-1.6 7.55 L-0.15 10.3 0.05 10.6 Q1.9 13.85 1.9 16.5 L1.9 17.25 1.9 18.7 Q1.55 28.45 -1.5 39.35 L-1.05 39.35 8.55 38.5 8.6 38.5 15.05 37.5 M2.0 -18.85 L3.05 -19.3 M1.15 -18.5 L0.85 -18.4 -1.3 -17.7 -3.8 -17.25 -5.25 -17.7 -6.45 -18.5 -7.1 -19.0 -8.9 -20.7 -9.35 -21.85 -8.85 -22.5 -8.6 -22.8 -8.85 -21.8 -8.65 -21.3 -8.35 -20.9 M-9.0 -20.35 Q-10.6 -16.3 -14.85 -6.95 -17.95 -0.05 -17.95 2.95 L-17.5 6.05 -16.45 8.85 -15.0 11.55 Q-12.1 16.2 -12.1 19.0 -12.1 23.55 -15.75 32.2 L-17.55 36.65 -20.1 35.25 Q-14.45 24.2 -16.25 18.7 L-19.15 10.5 -21.55 4.95 Q-22.85 2.15 -21.7 -1.1 -20.6 -4.4 -18.4 -8.35 -16.25 -12.3 -15.85 -14.8 -15.5 -17.3 -14.6 -18.55 -13.75 -19.85 -11.7 -21.55 L-10.05 -22.8 -8.35 -23.8 -8.45 -23.35 -8.45 -23.05 -8.6 -22.8 -8.6 -22.85 -8.5 -23.1 M1.15 -18.5 L2.0 -18.85 -0.85 -4.15 Q-2.2 2.65 -2.2 5.4 -2.2 6.2 -1.6 7.55 M19.3 36.65 L18.4 36.9 16.95 37.0 M-5.05 -18.45 L-5.0 -18.45 M-8.3 -24.35 L-8.35 -23.8 M-9.0 -20.35 L-8.9 -20.7 M-1.5 39.35 L-1.7 39.35 -4.85 39.25 -5.8 39.2 -8.35 38.95 -11.55 38.4 Q-15.05 37.7 -17.55 36.65" ffdec:has-small-stroke="true" ffdec:original-stroke-width="0.2" fill="none" stroke="#000000" stroke-linecap="round" stroke-linejoin="round" stroke-width="0.0625"/>
  </g>
</svg>
