<?xml version="1.0" encoding="UTF-8" standalone="no"?>
<svg xmlns:ffdec="https://www.free-decompiler.com/flash" xmlns:xlink="http://www.w3.org/1999/xlink" ffdec:objectType="shape" height="154.8px" width="36.6px" xmlns="http://www.w3.org/2000/svg">
  <g transform="matrix(4.0, 0.0, 0.0, 4.0, 0.0, 0.0)">
    <path d="M8.7 6.65 L9.0 14.95 9.15 25.25 9.1 29.4 8.9 33.75 8.55 36.2 Q8.4 37.0 7.6 37.55 L6.6 38.15 4.9 38.65 Q3.85 38.8 2.65 38.15 1.45 37.45 1.35 36.35 L1.15 34.2 0.9 30.55 0.3 22.05 Q-0.05 16.05 0.0 10.55 -0.05 5.0 1.1 3.2 2.05 1.3 3.35 0.6 4.5 0.0 5.15 0.0 6.5 0.0 7.15 0.45 7.65 0.9 8.0 2.05 8.45 3.1 8.7 6.65" fill="#fecfa3" fill-rule="evenodd" stroke="none"/>
  </g>
</svg>
