<?xml version="1.0" encoding="UTF-8" standalone="no"?>
<svg xmlns:ffdec="https://www.free-decompiler.com/flash" xmlns:xlink="http://www.w3.org/1999/xlink" ffdec:objectType="shape" height="154.4px" width="41.4px" xmlns="http://www.w3.org/2000/svg">
  <g transform="matrix(4.0, 0.0, 0.0, 4.0, 0.0, 0.0)">
    <path d="M10.0 14.65 L9.3 23.2 8.6 29.55 7.95 33.55 7.6 35.65 6.65 37.25 Q5.9 38.1 4.25 38.45 2.85 38.95 1.65 38.0 0.6 36.95 0.4 34.9 L0.1 32.4 0.05 29.5 Q-0.05 27.1 0.25 21.85 L0.35 15.05 Q0.75 5.95 2.7 2.95 4.85 0.0 6.65 0.0 8.45 -0.05 9.2 1.45 10.05 2.7 10.2 4.05 L10.3 7.55 10.0 14.65" fill="#fecfa3" fill-rule="evenodd" stroke="none"/>
  </g>
</svg>
