<?xml version="1.0" encoding="UTF-8" standalone="no"?>
<svg xmlns:ffdec="https://www.free-decompiler.com/flash" xmlns:xlink="http://www.w3.org/1999/xlink" ffdec:objectType="shape" height="83.8px" width="30.8px" xmlns="http://www.w3.org/2000/svg">
  <g transform="matrix(4.0, 0.0, 0.0, 4.0, 0.0, 0.0)">
    <path d="M4.45 -13.2 Q4.2 -16.75 3.75 -17.8 3.4 -18.95 2.9 -19.4 2.25 -19.85 0.9 -19.85 0.25 -19.85 -0.9 -19.25 -2.2 -18.55 -3.15 -16.65 -4.3 -14.85 -4.25 -9.3 -4.3 -3.8 -3.95 2.2 L-3.35 10.7 Q-3.05 13.35 -3.1 14.35 L-2.9 16.5 Q-2.8 17.6 -1.6 18.3 -0.4 18.95 0.65 18.8 L2.35 18.3 3.35 17.7 Q4.15 17.15 4.3 16.35 L4.65 13.9 4.85 9.55 4.9 5.4 4.75 -4.9 4.45 -13.2 Z" ffdec:has-small-stroke="true" ffdec:original-stroke-width="0.2" fill="none" stroke="#000000" stroke-linecap="round" stroke-linejoin="round" stroke-width="0.0625"/>
    <path d="M-0.4 20.9 L-0.75 19.25 -0.45 17.5 -0.1 15.2 Q-0.1 13.75 -1.2 10.8 -2.35 7.85 -2.35 5.9 L-2.5 2.75 -2.85 1.35 -1.2 1.1 -0.55 1.1 -0.6 0.95 -2.45 -1.25 Q-4.3 -3.65 -4.3 -5.3 -4.3 -6.3 -2.95 -9.05 L-2.8 -10.2 -3.25 -11.85 -3.7 -13.85 Q-3.7 -16.4 -1.5 -18.85 L0.5 -20.75 0.8 -21.0 0.85 -21.0 Q2.3 -21.0 4.55 -18.9 6.8 -16.8 6.8 -15.4 L7.2 -14.15 Q7.5 -13.25 7.1 -12.8 6.4 -10.3 6.4 -8.7 6.4 -6.35 7.05 -4.15 L7.7 -0.85 7.25 1.85 7.0 2.8 6.75 3.75 6.85 6.05 6.85 6.35 Q6.45 7.2 6.45 9.1 L6.1 12.05 5.7 14.55 5.95 16.2 Q5.95 17.45 4.9 18.55 L2.8 20.2 2.45 20.3 1.8 20.55 1.2 20.7 1.15 20.7 0.0 20.95 -0.4 20.9" fill="#242342" fill-rule="evenodd" stroke="none"/>
    <path d="M0.8 -21.0 L0.5 -20.75 -1.5 -18.85 Q-3.7 -16.4 -3.7 -13.85 L-3.25 -11.85 -2.8 -10.2 -2.95 -9.05 Q-4.3 -6.3 -4.3 -5.3 -4.3 -3.65 -2.45 -1.25 L-0.6 0.95 -0.55 1.1 -1.2 1.1 -2.85 1.35 -2.5 2.75 -2.35 5.9 Q-2.35 7.85 -1.2 10.8 -0.1 13.75 -0.1 15.2 L-0.45 17.5 -0.75 19.25 -0.4 20.9 Q-1.95 20.4 -6.25 16.95 L-5.95 14.9 -5.65 10.6 -5.2 11.25 -3.9 13.25 -3.9 13.2 -3.8 12.95 -3.9 12.85 -3.8 11.95 Q-3.8 10.1 -4.85 8.55 L-7.6 5.25 -6.75 2.85 Q-6.05 0.9 -6.05 -0.3 L-6.5 -2.45 -6.25 -6.55 -5.85 -13.35 Q-6.1 -14.05 -5.35 -16.0 L-3.95 -18.0 Q-2.5 -19.85 -1.9 -19.85 -1.6 -19.85 -0.65 -20.4 L0.45 -20.9 0.8 -21.0 M2.8 20.2 L4.9 18.55 Q5.95 17.45 5.95 16.2 L5.7 14.55 6.1 12.05 6.45 9.1 Q6.45 7.2 6.85 6.35 L7.05 11.15 7.2 11.7 7.25 12.35 Q7.1 12.65 7.3 13.75 L7.3 15.9 6.95 17.35 6.4 18.3 5.55 19.2 4.55 19.45 4.3 19.6 2.8 20.2" fill="#030312" fill-rule="evenodd" stroke="none"/>
    <path d="M-7.6 5.25 L-4.85 8.55 Q-3.8 10.1 -3.8 11.95 L-3.9 12.85 -3.8 12.95 -3.9 13.2 -3.9 13.25 -5.2 11.25 -5.65 10.6 -5.65 10.5 Q-5.7 9.7 -6.7 7.8 -7.75 5.85 -7.6 5.35 L-7.6 5.25" fill="#010107" fill-rule="evenodd" stroke="none"/>
    <path d="M0.8 -21.0 L0.45 -20.9 M-6.25 -6.55 L-6.5 -2.45 -6.05 -0.3 Q-6.05 0.9 -6.75 2.85 L-7.6 5.25 -7.6 5.35 Q-7.75 5.85 -6.7 7.8 -5.7 9.7 -5.65 10.5 L-5.65 10.6 -5.95 14.9 -6.25 16.95 Q-1.95 20.4 -0.4 20.9 L0.0 20.95 1.15 20.7 1.2 20.7 1.8 20.55 2.45 20.3 M6.85 6.05 L6.75 3.75 7.0 2.8 7.25 1.85 7.7 -0.85 7.05 -4.15 Q6.4 -6.35 6.4 -8.7 6.4 -10.3 7.1 -12.8 7.5 -13.25 7.2 -14.15 L6.8 -15.4 Q6.8 -16.8 4.55 -18.9 2.3 -21.0 0.85 -21.0 L0.8 -21.0 M6.85 6.35 L7.05 11.15 7.2 11.7 7.25 12.35 Q7.1 12.65 7.3 13.75 L7.3 15.9 6.95 17.35 6.4 18.3 5.55 19.2 4.55 19.45 4.3 19.6 2.8 20.2" ffdec:has-small-stroke="true" ffdec:original-stroke-width="0.2" fill="none" stroke="#000000" stroke-linecap="round" stroke-linejoin="round" stroke-width="0.0625"/>
    <path d="M1.6 -12.2 L2.15 -12.55 Q2.3 -12.45 3.6 -11.45 L4.65 -10.4 4.3 -10.4 2.0 -9.7 Q1.65 -9.85 1.25 -10.05 L1.05 -10.75 1.1 -10.95 1.2 -11.9 1.6 -12.2" fill="#fff7f7" fill-rule="evenodd" stroke="none"/>
    <path d="M1.2 -11.9 L1.2 -11.95 1.6 -12.2 1.2 -11.9" fill="#b7269a" fill-rule="evenodd" stroke="none"/>
    <path d="M1.25 -10.05 L-0.55 -10.85 Q0.2 -11.2 1.15 -11.9 L1.2 -11.9 1.1 -10.95 1.05 -10.75 1.25 -10.05" fill="#ffe6e6" fill-rule="evenodd" stroke="none"/>
    <path d="M1.25 -10.05 Q1.65 -9.85 2.0 -9.7 L4.3 -10.4 4.65 -10.4 3.6 -11.45 Q2.3 -12.45 2.15 -12.55 L1.6 -12.2 1.2 -11.95 1.2 -11.9 1.15 -11.9 Q0.2 -11.2 -0.55 -10.85 L1.25 -10.05 M2.15 -9.3 L-1.25 -10.9 2.15 -13.05 5.15 -10.25 2.15 -9.3" fill="#6682aa" fill-rule="evenodd" stroke="none"/>
    <path d="M0.9 -5.05 L1.4 -5.35 2.15 -5.85 3.95 -4.5 5.35 -3.25 4.9 -3.25 1.95 -2.5 0.95 -2.9 Q0.7 -3.3 0.7 -3.7 L0.8 -3.9 0.9 -5.05" fill="#fff7f7" fill-rule="evenodd" stroke="none"/>
    <path d="M1.4 -5.35 L0.9 -5.05 0.9 -5.1 1.4 -5.35" fill="#b7269a" fill-rule="evenodd" stroke="none"/>
    <path d="M0.9 -5.05 L0.8 -3.9 0.7 -3.7 Q0.7 -3.3 0.95 -2.9 L-1.3 -3.8 0.85 -5.05 0.9 -5.05" fill="#ffe6e6" fill-rule="evenodd" stroke="none"/>
    <path d="M1.4 -5.35 L0.9 -5.1 0.9 -5.05 0.85 -5.05 -1.3 -3.8 0.95 -2.9 1.95 -2.5 4.9 -3.25 5.35 -3.25 3.95 -4.5 2.15 -5.85 1.4 -5.35 M2.1 -2.0 L-2.2 -3.85 2.15 -6.4 5.95 -3.1 2.1 -2.0" fill="#6682aa" fill-rule="evenodd" stroke="none"/>
    <path d="M1.8 3.05 L2.2 2.75 2.75 2.4 4.2 3.5 5.25 4.55 4.9 4.55 2.6 5.25 1.85 4.9 1.65 4.2 1.7 4.0 Q1.7 3.15 1.8 3.05" fill="#fff7f7" fill-rule="evenodd" stroke="none"/>
    <path d="M2.2 2.75 L1.8 3.05 1.8 3.0 2.2 2.75" fill="#b7269a" fill-rule="evenodd" stroke="none"/>
    <path d="M1.8 3.05 Q1.7 3.15 1.7 4.0 L1.65 4.2 1.85 4.9 0.05 4.1 1.75 3.05 1.8 3.05" fill="#ffe6e6" fill-rule="evenodd" stroke="none"/>
    <path d="M1.85 4.9 L2.6 5.25 4.9 4.55 5.25 4.55 4.2 3.5 2.75 2.4 2.2 2.75 1.8 3.0 1.8 3.05 1.75 3.05 0.05 4.1 1.85 4.9 M5.75 4.7 L2.75 5.65 -0.65 4.05 2.75 1.9 5.75 4.7" fill="#6682aa" fill-rule="evenodd" stroke="none"/>
  </g>
</svg>
