<?xml version="1.0" encoding="UTF-8" standalone="no"?>
<svg xmlns:ffdec="https://www.free-decompiler.com/flash" xmlns:xlink="http://www.w3.org/1999/xlink" ffdec:objectType="shape" height="153.6px" width="40.8px" xmlns="http://www.w3.org/2000/svg">
  <g transform="matrix(4.0, 0.0, 0.0, 4.0, 0.0, 0.0)">
    <path d="M8.15 5.7 L9.3 12.25 Q9.85 16.4 9.7 24.2 9.55 31.95 9.7 33.1 L10.0 35.1 10.2 36.3 Q10.2 37.05 9.7 37.35 L7.85 38.15 Q5.45 38.65 4.4 38.1 3.4 37.35 3.45 36.55 L3.6 34.2 Q3.7 32.75 3.4 30.5 L2.65 25.95 1.2 18.25 Q0.25 12.8 0.25 11.85 L0.15 9.7 0.05 7.2 0.15 4.95 0.0 3.95 0.4 2.75 Q1.05 1.0 2.55 0.2 L4.7 0.05 6.85 0.8 7.6 3.3 8.15 5.7" fill="#fecfa3" fill-rule="evenodd" stroke="none"/>
  </g>
</svg>
