<?xml version="1.0" encoding="UTF-8" standalone="no"?>
<svg xmlns:ffdec="https://www.free-decompiler.com/flash" xmlns:xlink="http://www.w3.org/1999/xlink" ffdec:objectType="shape" height="76.6px" width="36.2px" xmlns="http://www.w3.org/2000/svg">
  <g transform="matrix(4.0, 0.0, 0.0, 4.0, 0.0, 0.0)">
    <path d="M2.0 -18.45 L2.75 -15.95 3.3 -13.55 4.45 -7.0 Q5.0 -2.85 4.85 4.95 4.7 12.7 4.85 13.85 L5.15 15.85 5.35 17.05 Q5.35 17.8 4.85 18.1 L3.0 18.9 Q0.6 19.4 -0.45 18.85 -1.45 18.1 -1.4 17.3 L-1.25 14.95 Q-1.15 13.5 -1.45 11.25 L-2.2 6.7 -3.65 -1.0 -4.6 -7.4 -4.7 -9.55 -4.8 -12.05 -4.7 -14.3" ffdec:has-small-stroke="true" ffdec:original-stroke-width="0.2" fill="none" stroke="#000000" stroke-linecap="round" stroke-linejoin="round" stroke-width="0.0625"/>
    <path d="M3.3 -19.2 L5.45 -14.0 Q6.0 -12.55 7.1 -11.35 L7.4 -10.2 7.95 -8.35 9.05 -4.85 3.45 -4.3 -0.15 -3.6 -1.35 -6.5 -2.15 -9.15 -3.35 -15.15 Q-3.85 -17.6 -4.3 -18.5 L-4.2 -18.6 Q-1.65 -20.45 0.25 -20.5 1.75 -20.55 3.3 -19.2 M7.95 -8.35 L2.65 -7.45 -1.35 -6.5 2.65 -7.45 7.95 -8.35" fill="#242342" fill-rule="evenodd" stroke="none"/>
    <path d="M7.1 -11.35 Q6.0 -12.55 5.45 -14.0 L3.3 -19.2 4.1 -18.35 4.5 -17.9 Q6.05 -16.0 6.25 -14.85 L7.1 -11.35 M-4.3 -18.5 Q-3.85 -17.6 -3.35 -15.15 L-2.15 -9.15 -1.35 -6.5 -5.65 -5.4 -6.35 -9.65 -7.2 -13.35 -6.9 -15.25 Q-6.25 -17.1 -4.3 -18.5 M-0.15 -3.6 L-4.55 -2.3 -5.65 -2.15 -5.55 -4.25 -5.65 -5.4 -1.35 -6.5 -0.15 -3.6" fill="#030312" fill-rule="evenodd" stroke="none"/>
    <path d="M-1.35 -6.5 L2.65 -7.45 7.95 -8.35 7.4 -10.2 7.1 -11.35 6.25 -14.85 Q6.05 -16.0 4.5 -17.9 M7.95 -8.35 L9.05 -4.85 3.45 -4.3 -0.15 -3.6 -4.55 -2.3 -5.65 -2.15 -5.55 -4.25 -5.65 -5.4 -6.35 -9.65 -7.2 -13.35 -6.9 -15.25 M-1.35 -6.5 L-5.65 -5.4" ffdec:has-small-stroke="true" ffdec:original-stroke-width="0.2" fill="none" stroke="#000000" stroke-linecap="round" stroke-linejoin="round" stroke-width="0.0625"/>
    <path d="M1.65 13.85 L4.15 13.7 5.15 13.4 5.4 13.8 5.2 14.4 1.65 14.7 -1.2 14.15 -1.85 13.5 -1.75 13.25 -1.6 13.05 Q-0.5 13.85 1.65 13.85 M2.05 12.05 Q3.6 12.15 5.05 11.5 L5.1 12.05 3.8 12.5 1.8 12.65 -0.6 12.3 -1.8 12.1 -1.9 11.85 -1.85 11.65 2.05 12.05" fill="#7e4b01" fill-rule="evenodd" stroke="none"/>
    <path d="M2.05 12.05 L-1.85 11.65 -1.9 11.85 -1.8 12.1 -0.6 12.3 1.8 12.65 3.8 12.5 5.1 12.05 5.05 11.5 Q3.6 12.15 2.05 12.05 M1.65 13.85 Q-0.5 13.85 -1.6 13.05 L-1.75 13.25 -1.85 13.5 -1.2 14.15 1.65 14.7 5.2 14.4 5.4 13.8 5.15 13.4 4.15 13.7 1.65 13.85 Z" ffdec:has-small-stroke="true" ffdec:original-stroke-width="0.2" fill="none" stroke="#000000" stroke-linecap="round" stroke-linejoin="round" stroke-width="0.0625"/>
  </g>
</svg>
