<?xml version="1.0" encoding="UTF-8" standalone="no"?>
<svg xmlns:ffdec="https://www.free-decompiler.com/flash" xmlns:xlink="http://www.w3.org/1999/xlink" ffdec:objectType="shape" height="53.4px" width="179.4px" xmlns="http://www.w3.org/2000/svg">
  <g transform="matrix(4.0, 0.0, 0.0, 4.0, 0.0, 0.0)">
    <path d="M-41.9 -6.25 Q-42.3 -5.8 -42.6 -4.0 L-42.9 0.3 Q-43.0 2.85 -41.9 6.0 L-43.1 6.0 Q-44.2 4.55 -44.75 1.45 -45.25 -1.8 -43.5 -6.25 L-41.9 -6.25" fill="#551111" fill-rule="evenodd" stroke="none"/>
    <path d="M-41.9 6.0 Q-43.0 2.85 -42.9 0.3 L-42.6 -4.0 Q-42.3 -5.8 -41.9 -6.25 L-40.6 -6.25 Q-41.1 -1.55 -40.8 2.3 L-40.8 2.45 -40.4 6.0 -41.9 6.0" fill="#721616" fill-rule="evenodd" stroke="none"/>
    <path d="M27.2 -13.3 L26.5 -12.75 25.55 -11.75 Q23.0 -8.6 22.6 -1.4 L22.6 1.7 Q22.9 6.6 25.3 10.2 L26.4 11.65 27.8 13.15 26.75 13.15 24.95 11.2 Q21.9 7.3 21.55 1.7 L21.55 1.6 21.55 -1.3 Q22.05 -10.15 25.8 -12.95 L26.15 -13.3 27.2 -13.3 M-29.15 -13.3 Q-30.55 -10.15 -31.0 -6.25 -31.5 -2.55 -31.2 1.35 L-31.2 1.7 Q-31.5 2.95 -30.6 7.55 L-29.5 11.0 -28.5 13.15 -29.5 13.15 -31.1 9.1 Q-32.3 5.6 -32.25 1.85 L-32.25 1.3 Q-32.45 -2.5 -31.95 -6.35 -31.5 -10.3 -30.05 -13.3 L-29.15 -13.3 M-40.4 6.0 L-40.8 2.45 -40.8 2.3 Q-41.1 -1.55 -40.6 -6.25 -39.9 -10.2 -38.15 -13.25 L-36.7 -13.3 Q-38.1 -10.9 -38.45 -8.7 -39.25 -2.8 -39.0 2.05 L-38.95 2.35 -38.7 5.35 -37.9 9.1 Q-37.4 11.3 -36.25 13.15 L-36.75 13.15 Q-38.1 12.95 -38.85 11.1 L-39.6 8.8 -40.4 6.0" fill="#231f10" fill-rule="evenodd" stroke="none"/>
    <path d="M31.1 -6.0 Q31.7 -9.1 32.9 -11.1 L33.3 -11.7 33.6 -12.1 33.75 -12.25 34.4 -13.15 34.6 -13.1 Q36.7 -12.9 37.85 -9.95 L38.5 -7.9 38.6 -7.45 37.6 -7.45 Q37.3 -7.9 35.9 -7.9 34.75 -7.9 34.3 -5.1 34.05 -3.8 34.05 -1.65 L34.3 2.55 34.4 3.4 Q34.65 6.35 35.85 6.85 36.95 7.3 37.35 6.45 L39.05 6.45 38.65 8.15 38.6 8.6 38.35 9.75 Q35.65 9.25 34.2 7.35 32.8 5.55 32.15 2.1 L32.05 1.45 Q31.4 -2.5 31.1 -6.0 M33.75 -12.25 L34.6 -13.1 33.75 -12.25" fill="#763c01" fill-rule="evenodd" stroke="none"/>
    <path d="M33.8 -13.25 L32.55 -12.0 32.25 -11.6 31.85 -11.0 Q29.9 -7.75 29.55 -1.55 29.45 0.25 29.6 1.9 L29.5 1.9 23.2 1.75 22.6 1.7 22.6 -1.4 Q23.0 -8.6 25.55 -11.75 L26.5 -12.75 27.2 -13.3 33.5 -13.3 33.75 -13.25 33.8 -13.25 M35.9 12.95 L35.35 12.4 36.65 12.7 35.9 12.95 M26.15 -13.3 L25.8 -12.95 25.85 -13.3 26.15 -13.3 M-38.95 2.35 L-39.0 2.05 Q-39.25 -2.8 -38.45 -8.7 -38.1 -10.9 -36.7 -13.3 L-30.05 -13.3 Q-31.5 -10.3 -31.95 -6.35 -32.45 -2.5 -32.25 1.3 L-32.25 1.85 -32.85 1.85 -33.35 1.95 -35.0 2.1 -38.95 2.35" fill="#ff9900" fill-rule="evenodd" stroke="none"/>
    <path d="M35.35 12.4 L34.0 10.85 33.8 10.55 Q31.1 6.95 30.65 1.95 L30.6 -1.65 31.1 -6.0 Q31.4 -2.5 32.05 1.45 L32.15 2.1 Q32.8 5.55 34.2 7.35 35.65 9.25 38.35 9.75 37.55 12.2 36.65 12.7 L35.35 12.4 M37.6 -7.45 L36.1 -7.45 Q34.85 -5.75 34.85 -0.4 34.85 3.7 35.65 5.6 L36.1 6.45 37.35 6.45 Q36.95 7.3 35.85 6.85 34.65 6.35 34.4 3.4 L34.3 2.55 34.05 -1.65 Q34.05 -3.8 34.3 -5.1 34.75 -7.9 35.9 -7.9 37.3 -7.9 37.6 -7.45" fill="#633201" fill-rule="evenodd" stroke="none"/>
    <path d="M29.6 1.9 Q30.0 7.2 32.95 10.95 L34.95 13.15 27.8 13.15 26.4 11.65 25.3 10.2 Q22.9 6.6 22.6 1.7 L23.2 1.75 29.5 1.9 29.6 1.9 M-38.95 2.35 L-35.0 2.1 -33.35 1.95 -32.85 1.85 -32.25 1.85 Q-32.3 5.6 -31.1 9.1 L-29.5 13.15 -36.25 13.15 Q-37.4 11.3 -37.9 9.1 L-38.7 5.35 -38.95 2.35" fill="#b15901" fill-rule="evenodd" stroke="none"/>
    <path d="M21.55 1.7 Q21.9 7.3 24.95 11.2 L26.75 13.15 -28.5 13.15 -29.5 11.0 -30.6 7.55 Q-31.5 2.95 -31.2 1.7 L-31.2 1.35 Q-7.75 -3.85 21.55 1.7" fill="#43561f" fill-rule="evenodd" stroke="none"/>
    <path d="M25.8 -12.95 Q22.05 -10.15 21.55 -1.3 L21.55 1.6 21.55 1.7 Q-7.75 -3.85 -31.2 1.35 -31.5 -2.55 -31.0 -6.25 -30.55 -10.15 -29.15 -13.3 L25.85 -13.3 25.8 -12.95" fill="#528a17" fill-rule="evenodd" stroke="none"/>
    <path d="M33.8 -13.25 L34.4 -13.15 33.75 -12.25 33.6 -12.1 33.3 -11.7 32.9 -11.1 Q31.7 -9.1 31.1 -6.0 L30.6 -1.65 30.65 1.95 Q31.1 6.95 33.8 10.55 L34.0 10.85 35.35 12.4 35.9 12.95 34.95 13.15 32.95 10.95 Q30.0 7.2 29.6 1.9 29.45 0.25 29.55 -1.55 29.9 -7.75 31.85 -11.0 L32.25 -11.6 32.55 -12.0 33.8 -13.25" fill="#000000" fill-rule="evenodd" stroke="none"/>
    <path d="M34.4 -13.15 L33.8 -13.25 32.55 -12.0 32.25 -11.6 31.85 -11.0 Q29.9 -7.75 29.55 -1.55 29.45 0.25 29.6 1.9 30.0 7.2 32.95 10.95 L34.95 13.15 35.9 12.95 35.35 12.4 34.0 10.85 33.8 10.55 Q31.1 6.95 30.65 1.95 L30.6 -1.65 31.1 -6.0 Q31.7 -9.1 32.9 -11.1 L33.3 -11.7 33.6 -12.1 33.75 -12.25 34.4 -13.15 34.6 -13.1 34.85 -13.35 M27.2 -13.3 L33.5 -13.3 33.75 -13.25 33.8 -13.25 M22.6 1.7 L22.6 -1.4 Q23.0 -8.6 25.55 -11.75 L26.5 -12.75 27.2 -13.3 26.15 -13.3 25.8 -12.95 Q22.05 -10.15 21.55 -1.3 L21.55 1.6 21.55 1.7 Q21.9 7.3 24.95 11.2 L26.75 13.15 27.8 13.15 26.4 11.65 25.3 10.2 Q22.9 6.6 22.6 1.7 M25.85 -13.3 L-29.15 -13.3 M26.15 -13.3 L25.85 -13.3 M39.05 6.45 L38.65 8.15 38.6 8.6 38.35 9.75 Q37.55 12.2 36.65 12.7 L35.9 12.95 M34.6 -13.1 Q36.7 -12.9 37.85 -9.95 L38.5 -7.9 38.6 -7.45 M34.6 -13.1 L33.75 -12.25 M34.95 13.15 L27.8 13.15 M35.35 12.4 L36.65 12.7 M-41.9 6.0 L-40.4 6.0 -39.6 8.8 -38.85 11.1 Q-38.1 12.95 -36.75 13.15 L-36.25 13.15 -29.5 13.15 -28.5 13.15 26.75 13.15 M-40.6 -6.25 L-41.9 -6.25 -43.5 -6.25 Q-45.25 -1.8 -44.75 1.45 -44.2 4.55 -43.1 6.0 L-41.9 6.0 M-30.05 -13.3 L-36.7 -13.3 -38.15 -13.25 Q-39.9 -10.2 -40.6 -6.25" ffdec:has-small-stroke="true" ffdec:original-stroke-width="0.2" fill="none" stroke="#000000" stroke-linecap="round" stroke-linejoin="round" stroke-width="0.0625"/>
    <path d="M22.75 -10.2 L-27.8 -10.2 -27.6 -12.7 23.55 -12.7 22.75 -10.2" fill="#88db35" fill-rule="evenodd" stroke="none"/>
    <path d="M-36.85 -9.35 Q-36.9 -8.65 -36.55 -8.15 -36.2 -7.65 -35.8 -7.75 -34.75 -7.95 -34.35 -8.4 -34.05 -8.8 -34.05 -9.55 L-34.2 -9.7 -34.35 -9.75 Q-34.35 -9.7 -34.45 -9.7 L-34.55 -9.55 Q-34.5 -9.0 -35.2 -8.75 L-35.8 -8.85 -36.0 -9.5 -35.75 -10.3 -34.75 -10.95 Q-34.0 -11.2 -33.45 -10.6 L-33.05 -9.9 Q-32.95 -9.1 -33.15 -8.55 -33.55 -7.4 -34.8 -6.85 L-36.9 -6.8 Q-37.7 -7.3 -37.9 -8.25 -38.1 -9.2 -37.8 -10.2 -37.45 -11.3 -36.7 -12.05 -35.15 -13.45 -33.45 -12.85 L-32.35 -12.25 -31.9 -11.7 -31.95 -11.35 -32.35 -10.95 -32.75 -11.05 -33.15 -11.5 Q-33.75 -12.1 -34.6 -11.8 L-36.4 -10.75 Q-36.85 -10.15 -36.85 -9.35" fill="#6d3701" fill-rule="evenodd" stroke="none"/>
    <path d="M-32.95 -2.35 L-32.5 -1.8 Q-32.45 -1.6 -32.55 -1.45 L-32.95 -1.05 -33.3 -1.15 -33.7 -1.6 Q-34.3 -2.2 -35.15 -1.9 -36.35 -1.6 -36.95 -0.85 -37.45 -0.25 -37.45 0.55 -37.45 1.25 -37.1 1.75 L-36.4 2.15 Q-35.3 1.95 -34.95 1.5 -34.6 1.1 -34.6 0.35 L-34.75 0.2 -34.95 0.15 -35.0 0.2 -35.1 0.35 Q-35.05 0.9 -35.75 1.15 L-36.35 1.05 -36.55 0.4 -36.3 -0.4 -35.35 -1.05 Q-34.55 -1.3 -34.0 -0.7 L-33.6 0.0 Q-33.55 0.8 -33.8 1.65 -34.1 2.5 -35.4 3.05 -36.75 3.55 -37.5 3.05 -38.25 2.6 -38.45 1.65 -38.65 0.7 -38.35 -0.3 -38.05 -1.4 -37.25 -2.15 -35.75 -3.6 -34.0 -2.95 -33.4 -2.75 -32.95 -2.35" fill="#6d3701" fill-rule="evenodd" stroke="none"/>
    <path d="M-31.85 9.05 L-32.25 8.95 -32.75 8.5 Q-33.5 7.9 -34.3 8.2 -35.4 8.5 -35.85 9.25 -36.2 9.85 -36.0 10.65 -35.9 11.35 -35.4 11.85 -34.9 12.35 -34.6 12.25 -33.55 12.05 -33.3 11.6 -33.05 11.2 -33.25 10.45 L-33.4 10.3 -33.6 10.25 -33.65 10.3 -33.75 10.45 Q-33.55 11.0 -34.2 11.25 L-34.85 11.15 -35.2 10.5 -35.1 9.7 -34.25 9.05 Q-33.55 8.8 -32.9 9.4 L-32.3 10.1 Q-32.05 10.9 -32.1 11.45 -32.25 12.6 -33.65 13.15 L-35.6 13.1 Q-36.4 12.7 -36.75 11.75 -37.2 10.8 -37.15 9.8 -37.05 8.7 -36.4 7.95 -35.3 6.55 -33.4 7.15 -32.7 7.35 -32.2 7.75 L-31.6 8.3 Q-31.5 8.5 -31.55 8.65 L-31.85 9.05" fill="#6d3701" fill-rule="evenodd" stroke="none"/>
    <path d="M25.7 -9.25 Q25.65 -8.55 26.0 -8.05 26.35 -7.55 26.75 -7.65 27.8 -7.85 28.2 -8.3 28.5 -8.7 28.5 -9.45 L28.35 -9.6 28.2 -9.65 28.1 -9.6 28.0 -9.45 Q28.05 -8.9 27.35 -8.65 L26.75 -8.75 26.55 -9.4 26.8 -10.2 27.8 -10.85 Q28.55 -11.1 29.1 -10.5 L29.5 -9.8 29.4 -8.45 Q29.0 -7.3 27.75 -6.75 L25.65 -6.7 Q24.85 -7.2 24.65 -8.15 24.45 -9.1 24.75 -10.1 25.1 -11.2 25.85 -11.95 27.4 -13.35 29.1 -12.75 29.7 -12.55 30.2 -12.15 L30.65 -11.6 30.6 -11.25 30.2 -10.85 29.8 -10.95 29.4 -11.4 Q28.8 -12.0 27.95 -11.7 26.75 -11.4 26.15 -10.65 25.7 -10.05 25.7 -9.25" fill="#6d3701" fill-rule="evenodd" stroke="none"/>
    <path d="M28.6 -2.25 L29.05 -1.7 29.0 -1.35 28.6 -0.95 28.25 -1.05 27.85 -1.5 Q27.25 -2.1 26.4 -1.8 25.2 -1.5 24.6 -0.75 24.1 -0.15 24.1 0.65 24.1 1.35 24.45 1.85 24.8 2.35 25.15 2.25 26.25 2.05 26.6 1.6 26.95 1.2 26.95 0.45 L26.8 0.3 26.6 0.25 26.55 0.3 26.45 0.45 Q26.5 1.0 25.8 1.25 L25.2 1.15 25.0 0.5 Q25.0 0.05 25.25 -0.3 L26.2 -0.95 Q27.0 -1.2 27.55 -0.6 L27.95 0.1 27.75 1.75 Q27.45 2.6 26.15 3.15 24.8 3.65 24.05 3.15 23.3 2.7 23.1 1.75 22.9 0.8 23.2 -0.2 23.5 -1.3 24.3 -2.05 25.8 -3.5 27.55 -2.85 L28.6 -2.25" fill="#6d3701" fill-rule="evenodd" stroke="none"/>
    <path d="M31.5 9.0 L31.1 8.9 30.6 8.45 Q29.85 7.85 29.05 8.15 27.95 8.45 27.5 9.2 27.15 9.8 27.35 10.6 27.45 11.3 27.95 11.8 28.45 12.3 28.75 12.2 29.8 12.0 30.05 11.55 30.3 11.15 30.1 10.4 L29.95 10.25 29.75 10.2 29.7 10.25 29.6 10.4 Q29.8 10.95 29.15 11.2 L28.5 11.1 28.15 10.45 28.25 9.65 Q28.5 9.2 29.1 9.0 29.8 8.75 30.45 9.35 L31.05 10.05 31.25 11.4 Q31.1 12.55 29.7 13.1 L27.75 13.05 Q26.95 12.65 26.6 11.7 26.15 10.75 26.2 9.75 26.3 8.65 26.95 7.9 28.05 6.5 29.95 7.1 L31.15 7.7 31.75 8.25 31.8 8.6 31.5 9.0" fill="#6d3701" fill-rule="evenodd" stroke="none"/>
    <path d="M37.05 6.45 Q36.0 4.65 36.0 0.15 36.0 -4.3 36.8 -5.75 L37.6 -7.4 37.6 -7.45 42.85 -7.45 Q42.0 -7.45 41.0 -5.65 39.95 -3.85 40.05 -0.9 40.15 2.0 41.1 4.25 42.0 6.4 42.85 6.45 L37.05 6.45" fill="#721616" fill-rule="evenodd" stroke="none"/>
    <path d="M37.6 -7.45 L37.6 -7.4 36.8 -5.75 Q36.0 -4.3 36.0 0.15 36.0 4.65 37.05 6.45 L36.1 6.45 Q35.3 6.4 34.1 5.0 32.85 3.55 33.3 -1.2 33.7 -5.95 36.0 -7.45 L37.6 -7.45" fill="#5c1212" fill-rule="evenodd" stroke="none"/>
    <path d="M42.85 6.45 Q42.0 6.4 41.1 4.25 40.15 2.0 40.05 -0.9 39.95 -3.85 41.0 -5.65 42.0 -7.45 42.85 -7.45 L42.95 -7.45 Q43.7 -7.45 44.25 -5.45 44.85 -3.4 44.85 -0.5 44.85 2.35 44.25 4.4 43.7 6.45 42.9 6.45 L42.85 6.45" fill="#551111" fill-rule="evenodd" stroke="none"/>
    <path d="M37.05 6.45 L42.85 6.45 Q42.0 6.4 41.1 4.25 40.15 2.0 40.05 -0.9 39.95 -3.85 41.0 -5.65 42.0 -7.45 42.85 -7.45 L37.6 -7.45 36.0 -7.45 Q33.7 -5.95 33.3 -1.2 32.85 3.55 34.1 5.0 35.3 6.4 36.1 6.45 L37.05 6.45 M42.85 6.45 L42.9 6.45 Q43.7 6.45 44.25 4.4 44.85 2.35 44.85 -0.5 44.85 -3.4 44.25 -5.45 43.7 -7.45 42.95 -7.45 L42.85 -7.45" ffdec:has-small-stroke="true" ffdec:original-stroke-width="0.2" fill="none" stroke="#000000" stroke-linecap="round" stroke-linejoin="round" stroke-width="0.0625"/>
  </g>
</svg>
