<?xml version="1.0" encoding="UTF-8" standalone="no"?>
<svg xmlns:ffdec="https://www.free-decompiler.com/flash" xmlns:xlink="http://www.w3.org/1999/xlink" ffdec:objectType="shape" height="84.8px" width="117.6px" xmlns="http://www.w3.org/2000/svg">
  <g transform="matrix(4.0, 0.0, 0.0, 4.0, 0.0, 0.0)">
    <path d="M27.95 7.8 L28.8 11.1 29.3 13.25 29.4 15.7 29.25 17.0 Q29.1 17.95 27.3 18.45 L24.3 18.85 21.05 18.9 12.95 20.15 4.55 21.2 Q2.2 21.05 1.0 20.0 -0.2 18.9 0.05 17.7 0.25 16.5 7.4 13.2 14.55 9.95 15.95 8.4 L17.7 6.05 18.4 3.2 Q18.75 1.25 21.5 0.45 L25.65 0.35 Q27.0 1.0 27.25 3.35 27.45 5.65 27.95 7.8" fill="#fecca1" fill-rule="evenodd" stroke="none"/>
  </g>
</svg>
