<?xml version="1.0" encoding="UTF-8" standalone="no"?>
<svg xmlns:ffdec="https://www.free-decompiler.com/flash" xmlns:xlink="http://www.w3.org/1999/xlink" ffdec:objectType="shape" height="48.8px" width="62.4px" xmlns="http://www.w3.org/2000/svg">
  <g transform="matrix(4.0, 0.0, 0.0, 4.0, 0.0, 0.0)">
    <path d="M11.15 -11.75 Q12.5 -11.1 12.75 -8.75 12.95 -6.45 13.45 -4.3 L14.3 -1.0 14.8 1.15 14.9 3.6 14.75 4.9 Q14.6 5.85 12.8 6.35 L9.8 6.75 6.55 6.8 -1.55 8.05 -9.95 9.1 Q-12.3 8.95 -13.5 7.9 -14.7 6.8 -14.45 5.6 -14.25 4.4 -7.1 1.1 0.05 -2.15 1.45 -3.7 2.85 -5.2 3.2 -6.05 L3.9 -8.9 Q4.25 -10.85 7.0 -11.65 L11.15 -11.75 Z" ffdec:has-small-stroke="true" ffdec:original-stroke-width="0.2" fill="none" stroke="#000000" stroke-linecap="round" stroke-linejoin="round" stroke-width="0.0625"/>
    <path d="M1.7 -11.55 Q2.2 -12.25 2.75 -12.45 L4.35 -12.75 4.4 -12.75 Q10.05 -13.05 12.4 -11.65 L14.95 -9.8 15.45 -9.2 Q15.3 -8.9 14.4 -8.55 L11.7 -8.1 11.1 -8.1 10.9 -8.1 10.5 -8.1 10.05 -8.15 9.3 -8.25 8.8 -8.35 Q7.15 -8.65 5.2 -9.5 2.45 -10.6 1.7 -11.55 M-17.25 7.9 L-17.25 7.65 Q-17.3 7.15 -16.5 6.6 L-14.45 5.65 -14.45 6.6 Q-13.7 8.3 -12.25 8.65 L-10.7 8.75 -8.95 8.85 -7.5 8.75 -4.65 8.35 -0.25 7.6 Q-0.45 6.35 -1.7 5.0 -3.5 3.0 -4.85 2.45 -6.2 1.9 -7.4 1.7 -8.6 1.5 -9.1 2.05 L-9.1 0.45 -6.05 0.4 Q-4.0 1.0 -2.3 2.35 -0.6 3.65 0.3 5.95 L1.2 7.7 -4.55 9.15 -11.1 9.45 -15.55 9.15 -16.5 8.75 Q-17.25 8.35 -17.25 7.9 M-12.25 8.65 L-12.55 8.65 -13.65 8.45 -14.4 8.3 -12.65 8.65 -13.0 8.6 -12.1 8.7 -12.25 8.65 M-14.45 6.6 Q-16.45 7.45 -15.85 7.85 L-14.6 8.25 -14.4 8.3 -14.6 8.25 -15.85 7.85 Q-16.45 7.45 -14.45 6.6 M1.2 7.7 L-0.25 7.6 1.2 7.7" fill="#311c1c" fill-rule="evenodd" stroke="none"/>
    <path d="M9.3 -8.25 L10.05 -8.15 10.5 -8.1 10.9 -8.1 11.1 -8.1 11.7 -8.1 14.4 -8.55 Q15.3 -8.9 15.45 -9.2 L15.5 -9.15 15.6 -8.5 15.5 -6.75 Q15.45 -5.65 15.05 -5.25 L14.3 -4.7 14.05 -4.55 14.6 -2.95 14.65 -1.9 Q13.6 -1.75 12.65 0.2 11.75 2.2 11.65 3.85 L11.75 4.55 11.75 4.6 11.25 4.7 11.25 4.55 11.25 3.5 11.1 0.45 Q11.0 -2.3 10.5 -3.75 L10.45 -3.9 10.85 -3.9 11.1 -3.9 Q12.95 -4.0 14.05 -4.55 12.95 -4.0 11.1 -3.9 L10.85 -3.9 10.45 -3.9 10.5 -3.75 Q11.0 -2.3 11.1 0.45 L11.25 3.5 11.25 4.55 11.25 4.7 11.75 4.6 11.8 4.6 11.85 4.6 11.95 4.5 14.85 3.9 Q15.1 4.1 15.35 5.45 15.6 6.75 15.05 7.85 14.7 8.5 13.7 8.85 L9.7 9.5 10.05 7.6 9.9 5.55 9.65 5.2 9.6 5.2 9.7 3.85 9.9 1.1 Q9.9 -2.05 9.55 -3.45 L9.5 -3.6 Q7.05 -3.45 4.65 -4.55 2.3 -5.5 1.6 -6.45 L1.9 -6.8 2.4 -6.4 4.45 -5.25 Q6.85 -4.2 9.35 -4.0 L9.35 -4.3 9.45 -6.3 9.25 -7.35 9.2 -7.9 9.25 -8.1 9.25 -8.15 9.3 -8.25 M10.5 -8.1 L10.7 -6.55 10.45 -4.3 10.25 -3.9 10.05 -3.9 9.45 -4.0 9.35 -4.0 9.45 -4.0 10.05 -3.9 10.25 -3.9 10.45 -4.3 10.7 -6.55 10.5 -8.1 M10.45 -3.9 L10.25 -3.9 10.45 -3.9 M9.65 5.2 L11.25 4.75 11.25 4.7 11.25 4.75 9.65 5.2" fill="#522e2e" fill-rule="evenodd" stroke="none"/>
    <path d="M1.7 -11.55 Q2.45 -10.6 5.2 -9.5 7.15 -8.65 8.8 -8.35 L9.3 -8.25 9.25 -8.15 9.25 -8.1 9.2 -7.9 9.25 -7.35 9.45 -6.3 9.35 -4.3 9.35 -4.0 Q6.85 -4.2 4.45 -5.25 L2.4 -6.4 1.9 -6.8 1.35 -7.7 1.1 -8.6 1.35 -9.85 1.7 -11.55 M9.7 9.5 L5.45 10.25 -1.35 11.45 -5.45 12.2 -11.8 11.8 -16.5 11.1 -16.9 10.5 -17.25 8.85 -17.25 7.9 Q-17.25 8.35 -16.5 8.75 L-15.55 9.15 -11.1 9.45 -4.55 9.15 1.2 7.7 2.45 7.35 7.75 5.75 2.45 7.35 1.2 7.7 0.3 5.95 Q-0.6 3.65 -2.3 2.35 -4.0 1.0 -6.05 0.4 L-9.1 0.45 -8.7 -0.05 Q-7.7 -1.25 -5.2 -2.75 L-1.55 -4.9 -0.55 -4.95 Q0.65 -5.65 1.6 -6.45 2.3 -5.5 4.65 -4.55 7.05 -3.45 9.5 -3.6 L9.55 -3.45 Q9.9 -2.05 9.9 1.1 L9.7 3.85 9.6 5.2 7.8 5.8 9.6 5.2 9.65 5.2 9.9 5.55 10.05 7.6 9.7 9.5 M3.8 -1.3 Q2.8 -2.65 1.1 -3.5 -0.35 -4.3 -1.1 -4.3 L-1.65 -4.15 -2.45 -3.75 -0.3 -2.85 Q1.65 -1.9 2.95 -0.65 4.05 0.45 5.25 2.45 L6.65 4.3 5.7 1.85 Q4.85 0.0 3.8 -1.3 M7.8 5.8 L7.75 5.75 7.75 5.8 7.8 5.8 M-0.55 -4.95 L0.0 -4.75 Q3.35 -3.5 5.9 0.8 7.75 3.8 7.75 5.75 7.75 3.8 5.9 0.8 3.35 -3.5 0.0 -4.75 L-0.55 -4.95" fill="#744241" fill-rule="evenodd" stroke="none"/>
    <path d="M3.8 -1.3 Q4.85 0.0 5.7 1.85 L6.65 4.3 5.25 2.45 Q4.05 0.45 2.95 -0.65 1.65 -1.9 -0.3 -2.85 L-2.45 -3.75 -1.65 -4.15 -1.1 -4.3 Q-0.35 -4.3 1.1 -3.5 2.8 -2.65 3.8 -1.3" fill="#ad6b6b" fill-rule="evenodd" stroke="none"/>
    <path d="M11.75 4.55 L11.8 4.55 11.8 4.6 11.75 4.6 11.75 4.55" fill="#334366" fill-rule="evenodd" stroke="none"/>
    <path d="M-14.4 8.3 L-13.65 8.45 -12.55 8.65 -12.25 8.65 -12.1 8.7 -12.55 8.65 -13.0 8.6 -12.65 8.65 -14.4 8.3" fill="#161e2e" fill-rule="evenodd" stroke="none"/>
    <path d="M-12.1 8.7 L-13.0 8.6 -12.55 8.65 -12.1 8.7" fill="#1d2538" fill-rule="evenodd" stroke="none"/>
    <path d="M15.45 -9.2 L14.95 -9.8 12.4 -11.65 Q10.05 -13.05 4.4 -12.75 L4.35 -12.75 2.75 -12.45 Q2.2 -12.25 1.7 -11.55 2.45 -10.6 5.2 -9.5 7.15 -8.65 8.8 -8.35 L9.3 -8.25 10.05 -8.15 10.5 -8.1 10.9 -8.1 11.1 -8.1 11.7 -8.1 14.4 -8.55 Q15.3 -8.9 15.45 -9.2 L15.45 -9.35 15.5 -9.15 15.6 -8.5 15.5 -6.75 Q15.45 -5.65 15.05 -5.25 L14.3 -4.7 14.05 -4.55 14.6 -2.95 14.65 -1.9 Q13.6 -1.75 12.65 0.2 11.75 2.2 11.65 3.85 L11.75 4.55 11.8 4.55 11.8 4.6 11.85 4.6 11.95 4.5 14.85 3.9 Q15.1 4.1 15.35 5.45 15.6 6.75 15.05 7.85 14.7 8.5 13.7 8.85 L9.7 9.5 5.45 10.25 -1.35 11.45 -5.45 12.2 -11.8 11.8 -16.5 11.1 -16.9 10.5 -17.25 8.85 -17.25 7.9 -17.25 7.65 Q-17.3 7.15 -16.5 6.6 L-14.45 5.65 -14.45 6.6 Q-16.45 7.45 -15.85 7.85 L-14.6 8.25 -14.4 8.3 -13.65 8.45 -12.55 8.65 -12.25 8.65 -10.7 8.75 -8.95 8.85 -7.5 8.75 -4.65 8.35 -0.25 7.6 Q-0.45 6.35 -1.7 5.0 -3.5 3.0 -4.85 2.45 -6.2 1.9 -7.4 1.7 -8.6 1.5 -9.1 2.05 L-9.1 0.45 -8.7 -0.05 Q-7.7 -1.25 -5.2 -2.75 L-1.55 -4.9 -0.55 -4.95 Q0.65 -5.65 1.6 -6.45 L1.9 -6.8 1.35 -7.7 1.1 -8.6 1.35 -9.85 1.7 -11.55 M9.35 -4.0 L9.45 -4.0 10.05 -3.9 10.25 -3.9 10.45 -4.3 10.7 -6.55 10.5 -8.1 M1.9 -6.8 L2.4 -6.4 4.45 -5.25 Q6.85 -4.2 9.35 -4.0 M15.5 -9.15 L15.45 -9.2 M14.05 -4.55 Q12.95 -4.0 11.1 -3.9 L10.85 -3.9 10.45 -3.9 10.5 -3.75 Q11.0 -2.3 11.1 0.45 L11.25 3.5 11.25 4.55 11.25 4.7 11.75 4.6 11.75 4.55 M10.25 -3.9 L10.45 -3.9 M11.75 4.6 L11.8 4.6 M11.25 4.7 L11.25 4.75 9.65 5.2 9.6 5.2 7.8 5.8 7.75 5.8 7.75 5.75 2.45 7.35 1.2 7.7 -4.55 9.15 -11.1 9.45 -15.55 9.15 -16.5 8.75 Q-17.25 8.35 -17.25 7.9 M7.75 5.75 Q7.75 3.8 5.9 0.8 3.35 -3.5 0.0 -4.75 L-0.55 -4.95 M1.2 7.7 L0.3 5.95 Q-0.6 3.65 -2.3 2.35 -4.0 1.0 -6.05 0.4 L-9.1 0.45 M-12.1 8.7 L-13.0 8.6 -12.65 8.65 -14.4 8.3 M-12.1 8.7 L-12.55 8.65 -13.0 8.6 M-0.25 7.6 L1.2 7.7" ffdec:has-small-stroke="true" ffdec:original-stroke-width="0.2" fill="none" stroke="#000000" stroke-linecap="round" stroke-linejoin="round" stroke-width="0.0625"/>
  </g>
</svg>
