<?xml version="1.0" encoding="UTF-8" standalone="no"?>
<svg xmlns:ffdec="https://www.free-decompiler.com/flash" xmlns:xlink="http://www.w3.org/1999/xlink" ffdec:objectType="shape" height="82.8px" width="117.6px" xmlns="http://www.w3.org/2000/svg">
  <g transform="matrix(4.0, 0.0, 0.0, 4.0, 0.0, 0.0)">
    <path d="M28.8 10.6 L29.3 12.75 29.4 15.2 29.25 16.5 Q29.1 17.45 27.3 17.95 L24.3 18.35 21.05 18.4 12.95 19.65 4.55 20.7 Q2.2 20.55 1.0 19.5 -0.2 18.4 0.05 17.2 0.25 16.0 7.4 12.7 14.55 9.45 15.95 7.9 L18.05 5.65 Q18.75 4.85 18.95 2.85 19.1 0.85 21.65 0.3 24.15 -0.3 25.35 0.25 26.25 0.6 26.9 4.0 27.1 5.2 27.8 7.3 L28.8 10.6" fill="#fecca1" fill-rule="evenodd" stroke="none"/>
  </g>
</svg>
