<?xml version="1.0" encoding="UTF-8" standalone="no"?>
<svg xmlns:ffdec="https://www.free-decompiler.com/flash" xmlns:xlink="http://www.w3.org/1999/xlink" ffdec:objectType="shape" height="47.6px" width="67.4px" xmlns="http://www.w3.org/2000/svg">
  <g transform="matrix(4.0, 0.0, 0.0, 4.0, 0.0, 0.0)">
    <path d="M15.3 -0.8 L15.8 1.35 15.9 3.8 15.75 5.1 Q15.6 6.05 13.8 6.55 L10.8 6.95 7.55 7.0 -0.55 8.25 -8.95 9.3 Q-11.3 9.15 -12.5 8.1 -13.7 7.0 -13.45 5.8 -13.25 4.6 -6.1 1.3 1.05 -1.95 2.45 -3.5 L4.55 -5.75 Q5.25 -6.55 5.45 -8.55 5.6 -10.55 8.15 -11.1 10.65 -11.7 11.85 -11.15 12.75 -10.8 13.4 -7.4 13.6 -6.2 14.3 -4.1 L15.3 -0.8 Z" ffdec:has-small-stroke="true" ffdec:original-stroke-width="0.2" fill="none" stroke="#000000" stroke-linecap="round" stroke-linejoin="round" stroke-width="0.0625"/>
    <path d="M-13.15 8.1 L-12.4 8.25 -12.15 8.3 -13.15 8.1" fill="#1d2538" fill-rule="evenodd" stroke="none"/>
    <path d="M13.0 4.35 L13.05 4.35 13.05 4.4 13.0 4.4 13.0 4.35" fill="#334366" fill-rule="evenodd" stroke="none"/>
    <path d="M2.95 -11.75 Q3.7 -10.8 6.45 -9.7 8.4 -8.85 10.05 -8.55 L10.55 -8.45 10.5 -8.35 10.5 -8.3 10.45 -8.1 10.5 -7.55 10.7 -6.5 10.6 -4.5 10.6 -4.2 Q8.1 -4.4 5.7 -5.45 4.45 -6.0 3.65 -6.6 L3.15 -7.0 2.6 -7.9 2.35 -8.8 2.6 -10.05 2.95 -11.75 M10.95 9.3 L6.7 10.05 -0.1 11.25 -5.35 11.9 -11.35 11.6 -15.25 10.9 -15.65 10.3 -16.0 8.65 -16.0 7.75 Q-16.0 8.15 -15.25 8.55 -15.25 8.7 -14.3 8.95 L-9.85 9.25 -3.3 8.95 2.45 7.5 3.7 7.15 9.0 5.55 Q9.0 3.6 7.15 0.6 4.6 -3.7 1.25 -4.95 L0.7 -5.15 2.85 -6.65 Q3.55 -5.7 5.9 -4.75 8.3 -3.65 10.75 -3.8 L10.8 -3.65 Q11.15 -2.25 11.15 0.9 L10.95 3.65 10.85 5.0 10.9 5.0 11.15 5.35 11.3 7.4 10.95 9.3 M-7.85 0.6 L-6.85 -0.6 -3.55 -3.1 -0.3 -5.1 0.7 -5.15 1.25 -4.95 Q4.6 -3.7 7.15 0.6 9.0 3.6 9.0 5.55 L3.7 7.15 2.45 7.5 1.55 5.75 Q0.65 3.45 -1.05 2.15 -2.8 0.8 -4.9 0.4 L-7.85 0.6 M2.35 -3.7 Q0.9 -4.5 0.15 -4.5 L-0.4 -4.35 -1.2 -3.95 0.95 -3.05 Q2.9 -2.1 4.2 -0.85 5.3 0.25 6.5 2.25 L7.9 4.1 6.95 1.65 Q6.1 -0.2 5.05 -1.5 4.05 -2.85 2.35 -3.7 M9.05 5.6 L9.0 5.55 9.0 5.6 9.05 5.6 10.85 5.0 9.05 5.6" fill="#744241" fill-rule="evenodd" stroke="none"/>
    <path d="M2.35 -3.7 Q4.05 -2.85 5.05 -1.5 6.1 -0.2 6.95 1.65 L7.9 4.1 6.5 2.25 Q5.3 0.25 4.2 -0.85 2.9 -2.1 0.95 -3.05 L-1.2 -3.95 -0.4 -4.35 0.15 -4.5 Q0.9 -4.5 2.35 -3.7" fill="#ad6b6b" fill-rule="evenodd" stroke="none"/>
    <path d="M2.95 -11.75 Q3.45 -12.45 4.0 -12.65 L5.6 -12.95 5.65 -12.95 Q11.3 -13.25 13.65 -11.85 L16.2 -10.0 16.7 -9.4 15.65 -8.75 12.95 -8.3 12.35 -8.3 12.15 -8.3 11.75 -8.3 11.3 -8.35 10.55 -8.45 10.05 -8.55 Q8.4 -8.85 6.45 -9.7 3.7 -10.8 2.95 -11.75 M-16.0 7.75 L-16.0 7.45 Q-16.05 6.95 -15.25 6.4 L-13.2 5.25 -13.45 6.5 Q-13.35 7.75 -11.9 8.35 L-9.45 8.55 -7.7 8.65 -6.25 8.55 -3.4 8.15 1.0 7.4 Q0.8 6.15 -0.45 4.8 -2.25 2.8 -3.6 2.3 -5.0 1.75 -6.2 1.75 L-7.85 2.0 -7.85 0.6 -4.9 0.4 Q-2.8 0.8 -1.05 2.15 0.65 3.45 1.55 5.75 L2.45 7.5 -3.3 8.95 -9.85 9.25 -14.3 8.95 Q-15.25 8.7 -15.25 8.55 -16.0 8.15 -16.0 7.75 M2.45 7.5 L1.0 7.4 2.45 7.5 M-11.9 8.35 L-12.15 8.3 -11.9 8.35 M-13.15 8.1 L-12.15 8.3 -12.4 8.25 -13.15 8.1 -13.35 8.05 -14.6 7.65 Q-15.2 7.25 -13.45 6.5 -15.2 7.25 -14.6 7.65 L-13.35 8.05 -13.15 8.1" fill="#311c1c" fill-rule="evenodd" stroke="none"/>
    <path d="M10.55 -8.45 L11.3 -8.35 11.75 -8.3 12.15 -8.3 12.35 -8.3 12.95 -8.3 15.65 -8.75 16.7 -9.4 16.75 -9.35 16.85 -8.7 16.75 -6.95 Q16.7 -5.85 16.3 -5.45 L15.55 -4.9 15.3 -4.75 15.85 -3.15 15.9 -2.1 Q14.85 -1.95 13.9 0.0 13.0 2.0 12.9 3.65 L13.0 4.35 13.0 4.4 13.05 4.4 13.1 4.4 13.2 4.3 Q15.7 3.5 16.05 3.65 L16.6 5.2 Q16.85 6.55 16.3 7.65 15.95 8.3 14.95 8.65 L10.95 9.3 11.3 7.4 11.15 5.35 10.9 5.0 10.85 5.0 10.95 3.65 11.15 0.9 Q11.15 -2.25 10.8 -3.65 L10.75 -3.8 Q8.3 -3.65 5.9 -4.75 3.55 -5.7 2.85 -6.65 L3.15 -7.0 3.65 -6.6 Q4.45 -6.0 5.7 -5.45 8.1 -4.4 10.6 -4.2 L10.7 -4.2 11.3 -4.1 11.5 -4.1 11.7 -4.1 11.75 -3.95 Q12.25 -2.5 12.35 0.25 L12.5 3.3 12.5 4.35 12.5 4.5 12.5 4.55 10.9 5.0 12.5 4.55 12.5 4.5 12.5 4.35 12.5 3.3 12.35 0.25 Q12.25 -2.5 11.75 -3.95 L11.7 -4.1 11.5 -4.1 11.3 -4.1 10.7 -4.2 10.6 -4.2 10.6 -4.5 10.7 -6.5 10.5 -7.55 10.45 -8.1 10.5 -8.3 10.5 -8.35 10.55 -8.45 M11.7 -4.1 L12.1 -4.1 12.35 -4.1 Q14.2 -4.2 15.3 -4.75 14.2 -4.2 12.35 -4.1 L12.1 -4.1 11.7 -4.1 M11.75 -8.3 L11.95 -6.75 11.7 -4.5 11.5 -4.1 11.7 -4.5 11.95 -6.75 11.75 -8.3 M12.5 4.5 L13.0 4.4 12.5 4.5" fill="#522e2e" fill-rule="evenodd" stroke="none"/>
    <path d="M16.7 -9.4 L16.2 -10.0 13.65 -11.85 Q11.3 -13.25 5.65 -12.95 L5.6 -12.95 4.0 -12.65 Q3.45 -12.45 2.95 -11.75 3.7 -10.8 6.45 -9.7 8.4 -8.85 10.05 -8.55 L10.55 -8.45 11.3 -8.35 11.75 -8.3 12.15 -8.3 12.35 -8.3 12.95 -8.3 15.65 -8.75 16.7 -9.4 16.7 -9.55 16.75 -9.35 16.85 -8.7 16.75 -6.95 Q16.7 -5.85 16.3 -5.45 L15.55 -4.9 15.3 -4.75 15.85 -3.15 15.9 -2.1 Q14.85 -1.95 13.9 0.0 13.0 2.0 12.9 3.65 L13.0 4.35 13.05 4.35 13.05 4.4 13.1 4.4 13.2 4.3 Q15.7 3.5 16.05 3.65 L16.6 5.2 Q16.85 6.55 16.3 7.65 15.95 8.3 14.95 8.65 L10.95 9.3 6.7 10.05 -0.1 11.25 -5.35 11.9 -11.35 11.6 -15.25 10.9 -15.65 10.3 -16.0 8.65 -16.0 7.75 -16.0 7.45 Q-16.05 6.95 -15.25 6.4 L-13.2 5.25 -13.45 6.5 Q-15.2 7.25 -14.6 7.65 L-13.35 8.05 -13.15 8.1 -12.15 8.3 -12.4 8.25 -13.15 8.1 M-11.9 8.35 L-9.45 8.55 -7.7 8.65 -6.25 8.55 -3.4 8.15 1.0 7.4 Q0.8 6.15 -0.45 4.8 -2.25 2.8 -3.6 2.3 -5.0 1.75 -6.2 1.75 L-7.85 2.0 -7.85 0.6 -6.85 -0.6 -3.55 -3.1 -0.3 -5.1 0.7 -5.15 2.85 -6.65 3.15 -7.0 2.6 -7.9 2.35 -8.8 2.6 -10.05 2.95 -11.75 M10.6 -4.2 Q8.1 -4.4 5.7 -5.45 4.45 -6.0 3.65 -6.6 L3.15 -7.0 M2.45 7.5 L3.7 7.15 9.0 5.55 Q9.0 3.6 7.15 0.6 4.6 -3.7 1.25 -4.95 L0.7 -5.15 M10.85 5.0 L10.9 5.0 12.5 4.55 12.5 4.5 12.5 4.35 12.5 3.3 12.35 0.25 Q12.25 -2.5 11.75 -3.95 L11.7 -4.1 11.5 -4.1 11.3 -4.1 10.7 -4.2 10.6 -4.2 M16.75 -9.35 L16.7 -9.4 M11.5 -4.1 L11.7 -4.5 11.95 -6.75 11.75 -8.3 M15.3 -4.75 Q14.2 -4.2 12.35 -4.1 L12.1 -4.1 11.7 -4.1 M13.0 4.35 L13.0 4.4 13.05 4.4 M13.0 4.4 L12.5 4.5 M9.0 5.55 L9.0 5.6 9.05 5.6 10.85 5.0 M1.0 7.4 L2.45 7.5 1.55 5.75 Q0.65 3.45 -1.05 2.15 -2.8 0.8 -4.9 0.4 L-7.85 0.6 M2.45 7.5 L-3.3 8.95 -9.85 9.25 -14.3 8.95 Q-15.25 8.7 -15.25 8.55 -16.0 8.15 -16.0 7.75 M-12.15 8.3 L-11.9 8.35" ffdec:has-small-stroke="true" ffdec:original-stroke-width="0.2" fill="none" stroke="#000000" stroke-linecap="round" stroke-linejoin="round" stroke-width="0.0625"/>
  </g>
</svg>
