<?xml version="1.0" encoding="UTF-8" standalone="no"?>
<svg xmlns:ffdec="https://www.free-decompiler.com/flash" xmlns:xlink="http://www.w3.org/1999/xlink" ffdec:objectType="shape" height="185.8px" width="65.2px" xmlns="http://www.w3.org/2000/svg">
  <g transform="matrix(4.0, 0.0, 0.0, 4.0, 0.0, 0.0)">
    <path d="M14.4 4.5 L15.5 7.75 16.2 12.4 Q16.5 14.95 15.75 25.95 L14.7 40.65 14.45 44.95 14.3 45.65 12.6 46.15 10.05 46.45 8.25 46.25 Q7.4 46.2 7.15 45.5 6.7 44.55 6.2 42.25 5.6 39.75 3.3 26.9 0.85 13.45 0.6 10.3 L0.2 5.25 Q-0.05 4.45 0.05 3.9 -0.05 2.9 0.3 2.4 0.55 1.4 1.2 1.25 L3.65 0.5 8.5 0.05 Q11.55 0.25 12.7 1.05 L14.4 4.5" fill="#fecfa3" fill-rule="evenodd" stroke="none"/>
  </g>
</svg>
