<?xml version="1.0" encoding="UTF-8" standalone="no"?>
<svg xmlns:ffdec="https://www.free-decompiler.com/flash" xmlns:xlink="http://www.w3.org/1999/xlink" ffdec:objectType="shape" height="82.4px" width="32.4px" xmlns="http://www.w3.org/2000/svg">
  <g transform="matrix(4.0, 0.0, 0.0, 4.0, 0.0, 0.0)">
    <path d="M4.05 -18.05 Q4.9 -16.8 5.05 -15.45 L5.15 -11.95 4.85 -4.85 4.15 3.7 3.45 10.05 2.8 14.05 2.45 16.15 1.5 17.75 Q0.75 18.6 -0.9 18.95 -2.3 19.45 -3.5 18.5 -4.55 17.45 -4.75 15.4 L-5.05 12.9 -5.1 10.0 Q-5.2 7.6 -4.9 2.35 L-4.8 -4.45 Q-4.4 -13.55 -2.45 -16.55 -0.3 -19.5 1.5 -19.5 3.3 -19.55 4.05 -18.05 Z" ffdec:has-small-stroke="true" ffdec:original-stroke-width="0.2" fill="none" stroke="#000000" stroke-linecap="round" stroke-linejoin="round" stroke-width="0.0625"/>
    <path d="M-6.6 5.85 L-6.25 3.65 -6.45 2.7 -6.55 1.8 -6.7 -0.85 -5.8 -3.95 Q-4.9 -6.0 -4.7 -8.2 -4.55 -9.75 -5.0 -12.2 -5.35 -12.7 -4.95 -13.5 L-4.45 -14.7 Q-4.3 -16.05 -1.9 -17.85 0.6 -19.75 2.05 -19.6 L2.1 -19.6 2.35 -19.35 4.15 -17.4 Q6.1 -14.85 5.85 -12.4 L5.25 -10.5 4.65 -9.0 4.65 -7.85 Q5.7 -5.15 5.65 -4.2 5.45 -2.6 3.4 -0.45 L1.35 1.5 1.3 1.65 1.95 1.7 3.55 2.1 3.05 3.4 2.6 6.4 Q2.4 8.25 0.95 10.95 -0.4 13.7 -0.6 15.1 L-0.45 17.35 -0.3 19.05 -0.85 20.6 -1.25 20.6 -2.35 20.3 -2.4 20.3 -3.0 20.1 -3.65 19.8 -4.0 19.7 -5.9 17.95 Q-6.8 16.8 -6.7 15.65 L-6.3 14.05 -6.45 11.6 -6.5 8.75 Q-6.3 7.0 -6.65 6.15 L-6.6 5.85" fill="#242342" fill-rule="evenodd" stroke="none"/>
    <path d="M-6.65 6.15 Q-6.3 7.0 -6.5 8.75 L-6.45 11.6 -6.3 14.05 -6.7 15.65 Q-6.8 16.8 -5.9 17.95 L-4.0 19.7 -5.4 19.0 -5.6 18.85 -6.6 18.5 -7.4 17.6 -7.8 16.65 -8.05 15.2 -7.8 13.15 -7.6 11.85 -7.5 11.2 -7.3 10.7 -6.65 6.15 M-0.85 20.6 L-0.3 19.05 -0.45 17.35 -0.6 15.1 Q-0.4 13.7 0.95 10.95 2.4 8.25 2.6 6.4 L3.05 3.4 3.55 2.1 1.95 1.7 1.3 1.65 1.35 1.5 3.4 -0.45 Q5.45 -2.6 5.65 -4.2 5.7 -5.15 4.65 -7.85 L4.65 -9.0 5.25 -10.5 5.85 -12.4 Q6.1 -14.85 4.15 -17.4 L2.35 -19.35 2.1 -19.6 2.45 -19.5 3.5 -18.9 Q4.4 -18.3 4.7 -18.3 5.3 -18.25 6.55 -16.35 L7.75 -14.35 Q8.3 -12.4 8.0 -11.75 L7.7 -5.25 7.55 -1.3 Q6.95 0.25 6.9 0.75 6.8 1.9 7.3 3.8 L7.85 6.15 4.85 9.1 Q3.6 10.5 3.45 12.25 L3.45 13.15 3.35 13.25 3.45 13.45 4.95 11.7 5.45 11.1 5.3 15.25 5.4 17.25 Q0.75 20.25 -0.85 20.6" fill="#030312" fill-rule="evenodd" stroke="none"/>
    <path d="M7.85 6.15 L7.85 6.25 Q7.95 6.75 6.75 8.55 5.55 10.25 5.45 11.0 L5.45 11.1 4.95 11.7 3.45 13.45 3.35 13.25 3.45 13.15 3.45 12.25 Q3.6 10.5 4.85 9.1 L7.85 6.15" fill="#000000" fill-rule="evenodd" stroke="none"/>
    <path d="M2.1 -19.6 L2.05 -19.6 Q0.6 -19.75 -1.9 -17.85 -4.3 -16.05 -4.45 -14.7 L-4.95 -13.5 Q-5.35 -12.7 -5.0 -12.2 -4.55 -9.75 -4.7 -8.2 -4.9 -6.0 -5.8 -3.95 L-6.7 -0.85 -6.55 1.8 -6.45 2.7 -6.25 3.65 -6.6 5.85 M-3.65 19.8 L-3.0 20.1 -2.4 20.3 -2.35 20.3 -1.25 20.6 -0.85 20.6 Q0.75 20.25 5.4 17.25 L5.3 15.25 5.45 11.1 5.45 11.0 Q5.55 10.25 6.75 8.55 7.95 6.75 7.85 6.25 L7.85 6.15 7.3 3.8 Q6.8 1.9 6.9 0.75 6.95 0.25 7.55 -1.3 L7.7 -5.25 M2.1 -19.6 L2.45 -19.5 M-6.65 6.15 L-7.3 10.7 -7.5 11.2 -7.6 11.85 -7.8 13.15 -8.05 15.2 -7.8 16.65 -7.4 17.6 -6.6 18.5 -5.6 18.85 -5.4 19.0 -4.0 19.7" ffdec:has-small-stroke="true" ffdec:original-stroke-width="0.2" fill="none" stroke="#000000" stroke-linecap="round" stroke-linejoin="round" stroke-width="0.0625"/>
  </g>
</svg>
