<?xml version="1.0" encoding="UTF-8" standalone="no"?>
<svg xmlns:ffdec="https://www.free-decompiler.com/flash" xmlns:xlink="http://www.w3.org/1999/xlink" ffdec:objectType="shape" height="210.0px" width="64.0px" xmlns="http://www.w3.org/2000/svg">
  <g transform="matrix(4.0, 0.0, 0.0, 4.0, 0.0, 0.0)">
    <path d="M15.5 11.1 Q16.3 15.2 15.85 25.35 L13.85 45.85 Q13.45 48.6 14.05 50.75 12.2 52.0 11.2 52.25 L9.35 52.5 Q8.55 52.5 7.4 51.95 L5.55 51.3 Q5.4 51.3 5.3 51.15 L5.05 50.7 4.5 46.95 4.4 46.25 4.35 46.15 2.85 35.95 2.65 34.35 2.65 34.1 2.05 29.75 Q0.75 18.85 0.15 8.35 L0.05 6.4 0.0 3.9 Q1.25 2.55 3.4 1.1 5.85 -0.6 8.7 0.35 L10.95 1.2 11.95 1.9 12.8 3.2 14.05 5.65 Q14.65 7.0 15.5 11.1" fill="#fecfa3" fill-rule="evenodd" stroke="none"/>
  </g>
</svg>
