<?xml version="1.0" encoding="UTF-8" standalone="no"?>
<svg xmlns:ffdec="https://www.free-decompiler.com/flash" xmlns:xlink="http://www.w3.org/1999/xlink" ffdec:objectType="shape" height="129.8px" width="57.0px" xmlns="http://www.w3.org/2000/svg">
  <g transform="matrix(4.0, 0.0, 0.0, 4.0, 0.0, 0.0)">
    <path d="M-8.75 -5.1 L-8.8 -5.4 Q-9.3 -6.95 -9.6 -9.0 L-10.15 -11.9 -10.85 -15.95 Q-11.9 -23.05 -10.3 -25.95 -8.75 -28.8 -6.7 -30.0 -4.65 -31.2 -3.05 -31.45 L-0.1 -31.8 3.65 -31.35 Q6.0 -30.75 7.25 -27.5 L8.95 -22.75 9.4 -20.8 10.55 -9.35 10.9 -3.65 8.6 -3.3 8.0 -3.25 -7.15 0.2 -7.45 0.25 -8.75 -5.1" fill="#333333" fill-rule="evenodd" stroke="none"/>
    <path d="M-8.75 -5.1 L-7.45 0.25 -7.15 0.2 8.0 -3.25 8.6 -3.3 10.9 -3.65 10.55 -9.35 9.4 -20.8 8.95 -22.75 7.25 -27.5 Q6.0 -30.75 3.65 -31.35 L-0.1 -31.8 -3.05 -31.45 Q-4.65 -31.2 -6.7 -30.0 -8.75 -28.8 -10.3 -25.95 -11.9 -23.05 -10.85 -15.95 L-10.15 -11.9 -9.6 -9.0 Q-9.3 -6.95 -8.8 -5.4 L-8.75 -5.1 M10.9 -3.65 L11.5 3.3 Q12.6 19.1 12.15 26.65 11.9 30.2 9.75 31.3 L7.55 32.05 6.75 32.2 4.55 32.4 Q2.25 32.65 1.0 31.15 -0.35 29.65 -0.9 27.85 L-2.2 23.6 -5.65 8.65 -7.45 0.25" ffdec:has-small-stroke="true" ffdec:original-stroke-width="0.2" fill="none" stroke="#000000" stroke-linecap="round" stroke-linejoin="round" stroke-width="0.0625"/>
    <path d="M-4.55 -34.25 Q-3.3 -35.3 -1.7 -35.5 L0.05 -35.75 1.45 -35.9 Q4.75 -35.95 6.65 -33.55 8.55 -31.2 9.0 -28.8 L9.7 -23.65 10.9 -12.45 11.35 -5.7 11.75 1.1 12.05 4.05 12.2 4.9 13.6 15.7 Q9.8 17.15 5.65 18.0 L3.55 4.05 3.45 2.55 Q2.7 -5.45 2.75 -7.65 2.75 -12.2 0.55 -21.2 L0.4 -21.9 0.4 -22.0 0.3 -21.85 Q-1.6 -28.75 -4.55 -34.25 M14.15 16.05 L14.25 17.65 14.05 19.1 8.65 20.75 6.15 21.3 5.75 18.45 7.65 18.05 14.15 16.05 M3.3 -24.75 L3.35 -24.85 3.3 -24.8 3.3 -24.75" fill="#b0ac84" fill-rule="evenodd" stroke="none"/>
    <path d="M-13.2 -12.7 L-13.45 -13.0 -13.15 -12.85 -13.2 -12.7 M0.3 -21.85 L0.4 -22.0 0.4 -21.9 0.3 -21.85" fill="#334366" fill-rule="evenodd" stroke="none"/>
    <path d="M6.15 21.3 L0.4 21.95 -4.5 21.45 -5.2 21.4 -5.6 19.7 -5.55 19.3 -0.45 19.4 5.75 18.45 6.15 21.3 M-5.0 18.9 L-5.25 17.7 Q-6.8 10.4 -8.3 4.05 L-9.45 0.25 -10.25 -2.65 Q-11.65 -6.4 -12.85 -11.45 L-13.05 -12.4 -13.05 -12.45 -13.1 -12.55 -13.15 -12.65 -13.2 -12.7 -13.15 -12.85 Q-12.95 -16.95 -11.3 -22.6 L-10.35 -25.9 Q-8.25 -32.05 -4.6 -34.25 L-4.55 -34.25 Q-1.6 -28.75 0.3 -21.85 L0.4 -21.9 0.55 -21.2 Q2.75 -12.2 2.75 -7.65 2.7 -5.45 3.45 2.55 L3.55 4.05 5.65 18.0 1.7 18.6 -4.55 19.0 -5.0 18.9" fill="#e0d9a2" fill-rule="evenodd" stroke="none"/>
    <path d="M3.3 -24.75 L3.3 -24.8 3.35 -24.85 3.3 -24.75" fill="#1d2538" fill-rule="evenodd" stroke="none"/>
    <path d="M-5.55 19.3 Q-4.95 19.15 -5.0 18.9 L-4.55 19.0 1.7 18.6 5.65 18.0 5.75 18.45 -0.45 19.4 -5.55 19.3" fill="#d2c079" fill-rule="evenodd" stroke="none"/>
    <path d="M13.6 15.7 L14.15 16.05 7.65 18.05 5.75 18.45 5.65 18.0 Q9.8 17.15 13.6 15.7" fill="#827853" fill-rule="evenodd" stroke="none"/>
    <path d="M9.0 -28.8 L9.7 -23.65 10.9 -12.45 11.35 -5.7 11.75 1.1 12.05 4.05 12.2 4.9 13.6 15.7 14.15 16.05 14.25 17.65 14.05 19.1 8.65 20.75 6.15 21.3 0.4 21.95 -4.5 21.45 -5.2 21.4 -5.6 19.7 -5.55 19.3 Q-4.95 19.15 -5.0 18.9 L-5.25 17.7 Q-6.8 10.4 -8.3 4.05 L-9.45 0.25 -10.25 -2.65 Q-11.65 -6.4 -12.85 -11.45 L-13.05 -12.4 M-5.55 19.3 L-0.45 19.4 5.75 18.45 7.65 18.05 14.15 16.05" ffdec:has-small-stroke="true" ffdec:original-stroke-width="0.2" fill="none" stroke="#000000" stroke-linecap="round" stroke-linejoin="round" stroke-width="0.0625"/>
  </g>
</svg>
