<?xml version="1.0" encoding="UTF-8" standalone="no"?>
<svg xmlns:ffdec="https://www.free-decompiler.com/flash" xmlns:xlink="http://www.w3.org/1999/xlink" ffdec:objectType="shape" height="129.8px" width="42.0px" xmlns="http://www.w3.org/2000/svg">
  <g transform="matrix(4.0, 0.0, 0.0, 4.0, 0.0, 0.0)">
    <path d="M-9.7 -3.55 L-10.15 -14.75 Q-10.3 -22.8 -9.75 -25.0 -9.1 -27.2 -8.3 -28.15 L-6.95 -29.5 -5.1 -30.55 -1.45 -31.9 Q0.95 -32.55 3.7 -31.95 6.4 -31.25 7.5 -26.7 L8.65 -20.7 8.9 -18.6 8.85 -13.85 8.85 -10.9 8.85 -7.5 8.95 -4.2 6.0 -4.25 2.75 -4.15 -9.7 -3.55" fill="#333333" fill-rule="evenodd" stroke="none"/>
    <path d="M-9.7 -3.55 L-10.15 -14.75 Q-10.3 -22.8 -9.75 -25.0 -9.1 -27.2 -8.3 -28.15 L-6.95 -29.5 -5.1 -30.55 -1.45 -31.9 Q0.95 -32.55 3.7 -31.95 6.4 -31.25 7.5 -26.7 L8.65 -20.7 8.9 -18.6 8.85 -13.85 8.85 -10.9 8.85 -7.5 8.95 -4.2 8.95 -1.1 8.8 3.4 8.8 4.75 8.7 12.4 8.4 20.0 7.8 25.65 7.15 27.95 6.15 29.25 Q4.85 30.7 3.6 31.45 2.55 32.15 1.45 32.35 -3.05 33.0 -5.35 28.55 L-7.7 15.7 -8.85 5.55 -9.55 -1.1 -9.7 -3.55 2.75 -4.15 6.0 -4.25 8.95 -4.2" ffdec:has-small-stroke="true" ffdec:original-stroke-width="0.2" fill="none" stroke="#000000" stroke-linecap="round" stroke-linejoin="round" stroke-width="0.0625"/>
    <path d="M0.35 -20.75 L0.45 -20.85 0.45 -20.8 0.35 -20.75" fill="#334366" fill-rule="evenodd" stroke="none"/>
    <path d="M3.55 -23.15 L3.6 -23.2 3.55 -23.1 3.55 -23.15" fill="#1d2538" fill-rule="evenodd" stroke="none"/>
    <path d="M-13.15 -15.1 L-13.3 -15.05 -13.1 -15.7 -13.1 -15.5 -13.15 -15.3 -13.15 -15.1" fill="#fcf2cf" fill-rule="evenodd" stroke="none"/>
    <path d="M2.5 23.1 L-2.9 23.5 Q-6.1 23.5 -7.75 22.8 L-8.35 22.35 Q-8.95 22.1 -9.0 21.4 L-9.1 20.3 -8.95 19.7 -7.65 20.0 -1.55 20.55 2.5 20.3 2.5 23.1 M-8.7 19.05 L-9.1 15.2 Q-9.9 8.3 -10.8 2.25 L-11.55 -1.4 -12.1 -4.15 Q-13.0 -7.5 -13.15 -15.1 L-13.15 -15.3 -13.1 -15.5 -13.1 -15.7 -13.1 -15.8 Q-13.2 -19.35 -12.7 -22.6 L-12.3 -25.5 -11.3 -26.7 Q-10.1 -28.2 -8.3 -29.55 L-6.1 -30.85 -5.8 -31.1 -2.9 -32.0 Q-0.75 -26.85 0.35 -20.75 L0.45 -20.8 0.5 -20.1 Q1.8 -11.6 1.85 -8.4 L1.95 -0.95 Q2.0 3.2 2.35 8.9 L2.6 18.5 2.55 19.9 1.15 19.95 -3.7 19.85 Q-7.3 19.7 -8.7 19.05" fill="#e0d9a2" fill-rule="evenodd" stroke="none"/>
    <path d="M9.9 18.25 L10.2 18.5 7.5 19.35 2.5 20.3 2.55 19.9 5.25 19.45 9.9 18.25" fill="#827853" fill-rule="evenodd" stroke="none"/>
    <path d="M-8.95 19.7 L-8.7 19.05 Q-7.3 19.7 -3.7 19.85 L1.15 19.95 2.55 19.9 2.5 20.3 -1.55 20.55 -7.65 20.0 -8.95 19.7" fill="#d2c079" fill-rule="evenodd" stroke="none"/>
    <path d="M-2.9 -32.0 L1.25 -32.5 Q4.05 -32.5 7.2 -31.7 L7.85 -30.9 Q9.4 -28.45 9.7 -26.15 L9.9 -21.35 9.9 -10.95 9.65 -4.65 9.4 1.65 9.4 4.45 9.4 5.25 9.9 18.25 5.25 19.45 2.55 19.9 2.6 18.5 2.35 8.9 Q2.0 3.2 1.95 -0.95 L1.85 -8.4 Q1.8 -11.6 0.5 -20.1 L0.45 -20.8 0.45 -20.85 0.35 -20.75 Q-0.75 -26.85 -2.9 -32.0 M10.2 18.5 L10.45 19.2 Q10.65 20.4 10.3 21.25 L9.9 21.4 6.35 22.35 2.5 23.1 2.5 20.3 7.5 19.35 10.2 18.5 M3.55 -23.15 L3.55 -23.1 3.6 -23.2 3.55 -23.15" fill="#b0ac84" fill-rule="evenodd" stroke="none"/>
    <path d="M9.7 -26.15 L9.9 -21.35 9.9 -10.95 9.65 -4.65 9.4 1.65 9.4 4.45 9.4 5.25 9.9 18.25 10.2 18.5 10.45 19.2 Q10.65 20.4 10.3 21.25 L9.9 21.4 6.35 22.35 2.5 23.1 -2.9 23.5 Q-6.1 23.5 -7.75 22.8 L-8.35 22.35 Q-8.95 22.1 -9.0 21.4 L-9.1 20.3 -8.95 19.7 -8.7 19.05 -9.1 15.2 Q-9.9 8.3 -10.8 2.25 L-11.55 -1.4 -12.1 -4.15 Q-13.0 -7.5 -13.15 -15.1 L-13.15 -15.3 -13.1 -15.5 -13.1 -15.7 -13.1 -15.8 Q-13.2 -19.35 -12.7 -22.6 L-12.3 -25.5 M-8.95 19.7 L-7.65 20.0 -1.55 20.55 2.5 20.3 7.5 19.35 10.2 18.5" ffdec:has-small-stroke="true" ffdec:original-stroke-width="0.2" fill="none" stroke="#000000" stroke-linecap="round" stroke-linejoin="round" stroke-width="0.0625"/>
  </g>
</svg>
