<?xml version="1.0" encoding="UTF-8" standalone="no"?>
<svg xmlns:ffdec="https://www.free-decompiler.com/flash" xmlns:xlink="http://www.w3.org/1999/xlink" ffdec:objectType="shape" height="66.0px" width="54.8px" xmlns="http://www.w3.org/2000/svg">
  <g transform="matrix(4.0, 0.0, 0.0, 4.0, 0.0, 0.0)">
    <path d="M13.6 3.55 L13.7 4.55 13.55 5.85 13.2 8.1 12.85 9.35 Q12.5 10.3 11.7 10.85 L10.7 11.45 10.0 12.05 8.45 13.4 Q8.0 13.6 7.8 14.05 6.95 15.0 5.85 14.05 5.65 15.7 4.65 16.35 3.55 17.0 2.35 14.4 L2.0 11.4 1.8 11.1 1.0 10.55 0.75 10.35 Q0.0 9.55 0.0 8.5 0.05 6.75 1.0 4.85 L1.95 3.15 Q3.1 2.05 4.9 1.85 L5.35 1.85 6.7 1.3 Q9.5 -0.85 11.3 0.55 L12.8 1.95 13.45 3.0 13.6 3.55" fill="#fecca1" fill-rule="evenodd" stroke="none"/>
  </g>
</svg>
