<?xml version="1.0" encoding="UTF-8" standalone="no"?>
<svg xmlns:ffdec="https://www.free-decompiler.com/flash" xmlns:xlink="http://www.w3.org/1999/xlink" ffdec:objectType="shape" height="22.0px" width="31.0px" xmlns="http://www.w3.org/2000/svg">
  <g transform="matrix(4.0, 0.0, 0.0, 4.0, 0.0, 0.0)">
    <path d="M6.85 -9.05 L7.5 -8.0 7.65 -7.45 7.75 -6.45 7.6 -5.15 7.25 -2.9 6.9 -1.65 Q6.55 -0.7 5.75 -0.15 L4.75 0.45 4.05 1.05 2.5 2.4 Q2.05 2.6 1.85 3.05 1.0 4.0 -0.1 3.05 -0.3 4.7 -1.3 5.35 -2.4 6.0 -3.6 3.4 L-3.95 0.4 Q-3.9 0.2 -4.15 0.1 L-4.95 -0.45 -5.2 -0.65 Q-5.95 -1.45 -5.95 -2.5 -5.9 -4.25 -4.95 -6.15 L-4.0 -7.85 Q-2.85 -8.95 -1.05 -9.15 L-0.6 -9.15 Q0.35 -9.3 0.75 -9.7" ffdec:has-small-stroke="true" ffdec:original-stroke-width="0.2" fill="none" stroke="#000000" stroke-linecap="round" stroke-linejoin="round" stroke-width="0.0625"/>
  </g>
</svg>
