<?xml version="1.0" encoding="UTF-8" standalone="no"?>
<svg xmlns:ffdec="https://www.free-decompiler.com/flash" xmlns:xlink="http://www.w3.org/1999/xlink" ffdec:objectType="shape" height="69.4px" width="59.6px" xmlns="http://www.w3.org/2000/svg">
  <g transform="matrix(4.0, 0.0, 0.0, 4.0, 0.0, 0.0)">
    <path d="M12.95 11.1 L11.9 11.75 11.1 12.45 Q10.55 13.3 9.35 13.95 8.85 14.15 8.6 14.7 7.65 15.7 6.85 15.65 6.8 16.3 5.35 17.15 3.9 17.95 2.55 15.1 L2.2 11.7 1.95 11.35 1.05 10.75 0.8 10.5 Q-0.05 9.65 0.0 8.5 0.05 6.45 1.05 4.4 L2.15 2.45 Q3.4 1.25 5.4 1.0 L5.9 1.0 6.75 0.25 8.05 0.1 Q9.3 -0.25 11.4 0.6 13.5 1.4 13.85 2.1 L14.4 3.3 14.75 4.5 14.9 5.75 14.65 8.0 14.3 9.4 Q13.85 10.5 12.95 11.1" fill="#fecca1" fill-rule="evenodd" stroke="none"/>
  </g>
</svg>
