<?xml version="1.0" encoding="UTF-8" standalone="no"?>
<svg xmlns:ffdec="https://www.free-decompiler.com/flash" xmlns:xlink="http://www.w3.org/1999/xlink" ffdec:objectType="shape" height="28.8px" width="31.6px" xmlns="http://www.w3.org/2000/svg">
  <g transform="matrix(4.0, 0.0, 0.0, 4.0, 0.0, 0.0)">
    <path d="M6.85 -8.05 L7.4 -6.85 7.75 -5.65 7.9 -4.4 7.65 -2.15 7.3 -0.75 Q6.85 0.35 5.95 0.95 L4.9 1.6 4.1 2.3 Q3.55 3.15 2.35 3.8 1.85 4.0 1.6 4.55 0.65 5.55 -0.15 5.5 -0.2 6.15 -1.65 7.0 -3.1 7.8 -4.45 4.95 L-4.8 1.55 Q-4.75 1.35 -5.05 1.2 L-5.95 0.6 -6.2 0.35 Q-7.05 -0.5 -7.0 -1.65 -6.95 -3.7 -5.95 -5.75 L-4.85 -7.7 Q-3.6 -8.9 -1.6 -9.15 L-1.1 -9.15 Q-0.55 -9.35 -0.25 -9.9" ffdec:has-small-stroke="true" ffdec:original-stroke-width="0.2" fill="none" stroke="#000000" stroke-linecap="round" stroke-linejoin="round" stroke-width="0.0625"/>
  </g>
</svg>
