<?xml version="1.0" encoding="UTF-8" standalone="no"?>
<svg xmlns:ffdec="https://www.free-decompiler.com/flash" xmlns:xlink="http://www.w3.org/1999/xlink" ffdec:objectType="shape" height="141.4px" width="36.4px" xmlns="http://www.w3.org/2000/svg">
  <g transform="matrix(4.0, 0.0, 0.0, 4.0, 0.0, 0.0)">
    <path d="M7.65 3.35 L8.15 5.5 9.0 11.65 Q9.3 15.45 8.85 22.55 8.25 29.7 8.4 30.8 L8.6 32.65 8.75 33.65 Q8.75 34.35 8.25 34.6 L6.3 35.25 2.9 34.95 Q1.95 34.25 2.1 33.5 L2.3 31.4 2.3 27.95 1.75 23.65 0.65 16.6 Q-0.05 11.55 0.05 10.75 L0.0 8.7 0.05 6.45 0.25 4.35 0.45 3.4 0.5 2.9 0.55 2.4 Q1.35 0.8 2.75 0.15 3.3 -0.15 4.9 0.15 L7.1 1.0 7.65 3.35" fill="#fecfa3" fill-rule="evenodd" stroke="none"/>
  </g>
</svg>
