<?xml version="1.0" encoding="UTF-8" standalone="no"?>
<svg xmlns:ffdec="https://www.free-decompiler.com/flash" xmlns:xlink="http://www.w3.org/1999/xlink" ffdec:objectType="shape" height="69.4px" width="33.0px" xmlns="http://www.w3.org/2000/svg">
  <g transform="matrix(4.0, 0.0, 0.0, 4.0, 0.0, 0.0)">
    <path d="M2.2 -17.0 L2.75 -14.65 3.25 -12.5 4.1 -6.35 Q4.4 -2.55 3.95 4.55 3.35 11.7 3.5 12.8 L3.7 14.65 3.85 15.65 Q3.85 16.35 3.35 16.6 L1.4 17.25 -2.0 16.95 Q-2.95 16.25 -2.8 15.5 L-2.6 13.4 Q-2.45 12.0 -2.6 9.95 -2.7 7.9 -3.15 5.65 L-4.25 -1.4 Q-4.95 -6.45 -4.85 -7.25 L-4.9 -9.3 -4.85 -11.55 -4.65 -13.65 -4.45 -14.6 -4.4 -15.1" ffdec:has-small-stroke="true" ffdec:original-stroke-width="0.2" fill="none" stroke="#000000" stroke-linecap="round" stroke-linejoin="round" stroke-width="0.0625"/>
    <path d="M6.8 -10.65 L7.0 -9.5 7.5 -7.2 Q7.8 -5.6 8.25 -4.15 L2.6 -3.6 -1.05 -2.9 -5.55 -1.6 -6.7 -1.45 -6.4 -3.55 -6.35 -4.5 Q-6.4 -6.25 -6.8 -8.95 L-7.35 -12.65 -6.9 -14.55 -6.15 -16.2 -3.95 -17.9 Q-1.25 -19.75 0.65 -19.8 2.15 -19.85 3.6 -18.5 L5.35 -13.3 Q5.8 -11.85 6.8 -10.65 M-6.35 -4.5 L-2.05 -5.75 1.95 -6.5 7.5 -7.2 1.95 -6.5 -2.05 -5.75 -6.35 -4.5" fill="#242342" fill-rule="evenodd" stroke="none"/>
    <path d="M3.6 -18.5 L4.35 -17.65 4.7 -17.2 Q6.1 -15.3 6.2 -14.15 L6.8 -10.65 Q5.8 -11.85 5.35 -13.3 L3.6 -18.5" fill="#030312" fill-rule="evenodd" stroke="none"/>
    <path d="M4.7 -17.2 Q6.1 -15.3 6.2 -14.15 L6.8 -10.65 7.0 -9.5 7.5 -7.2 Q7.8 -5.6 8.25 -4.15 L2.6 -3.6 -1.05 -2.9 -5.55 -1.6 -6.7 -1.45 -6.4 -3.55 -6.35 -4.5 Q-6.4 -6.25 -6.8 -8.95 L-7.35 -12.65 -6.9 -14.55 M7.5 -7.2 L1.95 -6.5 -2.05 -5.75 -6.35 -4.5" ffdec:has-small-stroke="true" ffdec:original-stroke-width="0.2" fill="none" stroke="#000000" stroke-linecap="round" stroke-linejoin="round" stroke-width="0.0625"/>
  </g>
</svg>
